G75*
G70*
%OFA0B0*%
%FSLAX24Y24*%
%IPPOS*%
%LPD*%
%AMOC8*
5,1,8,0,0,1.08239X$1,22.5*
%
%ADD10C,0.0000*%
%ADD11OC8,0.0555*%
%ADD12C,0.0555*%
%ADD13R,0.0591X0.0138*%
%ADD14R,0.0138X0.0591*%
%ADD15R,0.0157X0.0512*%
%ADD16R,0.0555X0.0555*%
%ADD17C,0.0094*%
%ADD18C,0.0079*%
%ADD19C,0.0350*%
%ADD20C,0.0160*%
%ADD21C,0.0100*%
D10*
X000504Y000504D02*
X000504Y018600D01*
X020424Y018600D01*
X020424Y000504D01*
X000504Y000504D01*
D11*
X001004Y001004D03*
X001004Y002004D03*
X002004Y002004D03*
X002004Y003004D03*
X002004Y004004D03*
X002004Y005004D03*
X001004Y005004D03*
X001004Y004004D03*
X001004Y003004D03*
X001004Y006004D03*
X001004Y007004D03*
X001004Y008004D03*
X001004Y009004D03*
X001004Y010004D03*
X001004Y011004D03*
X002004Y011004D03*
X002004Y010004D03*
X002004Y012004D03*
X002004Y013004D03*
X001004Y013004D03*
X001004Y014004D03*
X001004Y015004D03*
X001004Y016004D03*
X001004Y018004D03*
X001004Y012004D03*
X013004Y001004D03*
X014004Y001004D03*
X015004Y001004D03*
X016004Y001004D03*
X016004Y002004D03*
X017004Y002004D03*
X018004Y002004D03*
X019004Y002004D03*
X019004Y001004D03*
X018004Y001004D03*
X017004Y001004D03*
D12*
X001004Y017004D03*
D13*
X005354Y011866D03*
X005354Y011669D03*
X005354Y011472D03*
X005354Y011276D03*
X005354Y011079D03*
X005354Y010882D03*
X005354Y010685D03*
X005354Y010488D03*
X005354Y010291D03*
X005354Y010095D03*
X005354Y009898D03*
X005354Y009701D03*
X005354Y009504D03*
X005354Y009307D03*
X005354Y009110D03*
X005354Y008913D03*
X005354Y008717D03*
X005354Y008520D03*
X005354Y008323D03*
X005354Y008126D03*
X005354Y007929D03*
X005354Y007732D03*
X005354Y007535D03*
X005354Y007339D03*
X005354Y007142D03*
X011654Y007142D03*
X011654Y007339D03*
X011654Y007535D03*
X011654Y007732D03*
X011654Y007929D03*
X011654Y008126D03*
X011654Y008323D03*
X011654Y008520D03*
X011654Y008717D03*
X011654Y008913D03*
X011654Y009110D03*
X011654Y009307D03*
X011654Y009504D03*
X011654Y009701D03*
X011654Y009898D03*
X011654Y010095D03*
X011654Y010291D03*
X011654Y010488D03*
X011654Y010685D03*
X011654Y010882D03*
X011654Y011079D03*
X011654Y011276D03*
X011654Y011472D03*
X011654Y011669D03*
X011654Y011866D03*
D14*
X010866Y012654D03*
X010669Y012654D03*
X010472Y012654D03*
X010276Y012654D03*
X010079Y012654D03*
X009882Y012654D03*
X009685Y012654D03*
X009488Y012654D03*
X009291Y012654D03*
X009095Y012654D03*
X008898Y012654D03*
X008701Y012654D03*
X008504Y012654D03*
X008307Y012654D03*
X008110Y012654D03*
X007913Y012654D03*
X007717Y012654D03*
X007520Y012654D03*
X007323Y012654D03*
X007126Y012654D03*
X006929Y012654D03*
X006732Y012654D03*
X006535Y012654D03*
X006339Y012654D03*
X006142Y012654D03*
X006142Y006354D03*
X006339Y006354D03*
X006535Y006354D03*
X006732Y006354D03*
X006929Y006354D03*
X007126Y006354D03*
X007323Y006354D03*
X007520Y006354D03*
X007717Y006354D03*
X007913Y006354D03*
X008110Y006354D03*
X008307Y006354D03*
X008504Y006354D03*
X008701Y006354D03*
X008898Y006354D03*
X009095Y006354D03*
X009291Y006354D03*
X009488Y006354D03*
X009685Y006354D03*
X009882Y006354D03*
X010079Y006354D03*
X010276Y006354D03*
X010472Y006354D03*
X010669Y006354D03*
X010866Y006354D03*
D15*
X012697Y007220D03*
X013012Y007220D03*
X013327Y007220D03*
X013642Y007220D03*
X013957Y007220D03*
X014272Y007220D03*
X014587Y007220D03*
X014902Y007220D03*
X015217Y007220D03*
X015531Y007220D03*
X015846Y007220D03*
X016161Y007220D03*
X016476Y007220D03*
X016791Y007220D03*
X017106Y007220D03*
X017421Y007220D03*
X017736Y007220D03*
X018051Y007220D03*
X018366Y007220D03*
X018681Y007220D03*
X018996Y007220D03*
X019311Y007220D03*
X019311Y011787D03*
X018996Y011787D03*
X018681Y011787D03*
X018366Y011787D03*
X018051Y011787D03*
X017736Y011787D03*
X017421Y011787D03*
X017106Y011787D03*
X016791Y011787D03*
X016476Y011787D03*
X016161Y011787D03*
X015846Y011787D03*
X015531Y011787D03*
X015217Y011787D03*
X014902Y011787D03*
X014587Y011787D03*
X014272Y011787D03*
X013957Y011787D03*
X013642Y011787D03*
X013327Y011787D03*
X013012Y011787D03*
X012697Y011787D03*
D16*
X012004Y001004D03*
D17*
X008732Y003821D02*
X008732Y004199D01*
X008732Y003821D02*
X008276Y003821D01*
X008276Y004199D01*
X008732Y004199D01*
X008732Y003914D02*
X008276Y003914D01*
X008276Y004007D02*
X008732Y004007D01*
X008732Y004100D02*
X008276Y004100D01*
X008276Y004193D02*
X008732Y004193D01*
X008732Y004609D02*
X008732Y004987D01*
X008732Y004609D02*
X008276Y004609D01*
X008276Y004987D01*
X008732Y004987D01*
X008732Y004702D02*
X008276Y004702D01*
X008276Y004795D02*
X008732Y004795D01*
X008732Y004888D02*
X008276Y004888D01*
X008276Y004981D02*
X008732Y004981D01*
X005982Y004999D02*
X005982Y004621D01*
X005526Y004621D01*
X005526Y004999D01*
X005982Y004999D01*
X005982Y004714D02*
X005526Y004714D01*
X005526Y004807D02*
X005982Y004807D01*
X005982Y004900D02*
X005526Y004900D01*
X005526Y004993D02*
X005982Y004993D01*
X005982Y005409D02*
X005982Y005787D01*
X005982Y005409D02*
X005526Y005409D01*
X005526Y005787D01*
X005982Y005787D01*
X005982Y005502D02*
X005526Y005502D01*
X005526Y005595D02*
X005982Y005595D01*
X005982Y005688D02*
X005526Y005688D01*
X005526Y005781D02*
X005982Y005781D01*
X012382Y005799D02*
X012382Y005421D01*
X011926Y005421D01*
X011926Y005799D01*
X012382Y005799D01*
X012382Y005514D02*
X011926Y005514D01*
X011926Y005607D02*
X012382Y005607D01*
X012382Y005700D02*
X011926Y005700D01*
X011926Y005793D02*
X012382Y005793D01*
X013232Y005799D02*
X013232Y005421D01*
X012776Y005421D01*
X012776Y005799D01*
X013232Y005799D01*
X013232Y005514D02*
X012776Y005514D01*
X012776Y005607D02*
X013232Y005607D01*
X013232Y005700D02*
X012776Y005700D01*
X012776Y005793D02*
X013232Y005793D01*
X013232Y006209D02*
X013232Y006587D01*
X013232Y006209D02*
X012776Y006209D01*
X012776Y006587D01*
X013232Y006587D01*
X013232Y006302D02*
X012776Y006302D01*
X012776Y006395D02*
X013232Y006395D01*
X013232Y006488D02*
X012776Y006488D01*
X012776Y006581D02*
X013232Y006581D01*
X012382Y006587D02*
X012382Y006209D01*
X011926Y006209D01*
X011926Y006587D01*
X012382Y006587D01*
X012382Y006302D02*
X011926Y006302D01*
X011926Y006395D02*
X012382Y006395D01*
X012382Y006488D02*
X011926Y006488D01*
X011926Y006581D02*
X012382Y006581D01*
X006526Y013471D02*
X006526Y013849D01*
X006982Y013849D01*
X006982Y013471D01*
X006526Y013471D01*
X006526Y013564D02*
X006982Y013564D01*
X006982Y013657D02*
X006526Y013657D01*
X006526Y013750D02*
X006982Y013750D01*
X006982Y013843D02*
X006526Y013843D01*
X006526Y014259D02*
X006526Y014637D01*
X006982Y014637D01*
X006982Y014259D01*
X006526Y014259D01*
X006526Y014352D02*
X006982Y014352D01*
X006982Y014445D02*
X006526Y014445D01*
X006526Y014538D02*
X006982Y014538D01*
X006982Y014631D02*
X006526Y014631D01*
X005276Y014637D02*
X005276Y014259D01*
X005276Y014637D02*
X005732Y014637D01*
X005732Y014259D01*
X005276Y014259D01*
X005276Y014352D02*
X005732Y014352D01*
X005732Y014445D02*
X005276Y014445D01*
X005276Y014538D02*
X005732Y014538D01*
X005732Y014631D02*
X005276Y014631D01*
X005276Y013849D02*
X005276Y013471D01*
X005276Y013849D02*
X005732Y013849D01*
X005732Y013471D01*
X005276Y013471D01*
X005276Y013564D02*
X005732Y013564D01*
X005732Y013657D02*
X005276Y013657D01*
X005276Y013750D02*
X005732Y013750D01*
X005732Y013843D02*
X005276Y013843D01*
X008276Y013871D02*
X008276Y014249D01*
X008732Y014249D01*
X008732Y013871D01*
X008276Y013871D01*
X008276Y013964D02*
X008732Y013964D01*
X008732Y014057D02*
X008276Y014057D01*
X008276Y014150D02*
X008732Y014150D01*
X008732Y014243D02*
X008276Y014243D01*
X008276Y014659D02*
X008276Y015037D01*
X008732Y015037D01*
X008732Y014659D01*
X008276Y014659D01*
X008276Y014752D02*
X008732Y014752D01*
X008732Y014845D02*
X008276Y014845D01*
X008276Y014938D02*
X008732Y014938D01*
X008732Y015031D02*
X008276Y015031D01*
D18*
X003677Y012846D02*
X003361Y012846D01*
X003361Y013162D01*
X003677Y013162D01*
X003677Y012846D01*
X003677Y012924D02*
X003361Y012924D01*
X003361Y013002D02*
X003677Y013002D01*
X003677Y013080D02*
X003361Y013080D01*
X003361Y013158D02*
X003677Y013158D01*
X003047Y012846D02*
X002731Y012846D01*
X002731Y013162D01*
X003047Y013162D01*
X003047Y012846D01*
X003047Y012924D02*
X002731Y012924D01*
X002731Y013002D02*
X003047Y013002D01*
X003047Y013080D02*
X002731Y013080D01*
X002731Y013158D02*
X003047Y013158D01*
X002677Y013846D02*
X002361Y013846D01*
X002361Y014162D01*
X002677Y014162D01*
X002677Y013846D01*
X002677Y013924D02*
X002361Y013924D01*
X002361Y014002D02*
X002677Y014002D01*
X002677Y014080D02*
X002361Y014080D01*
X002361Y014158D02*
X002677Y014158D01*
X002047Y013846D02*
X001731Y013846D01*
X001731Y014162D01*
X002047Y014162D01*
X002047Y013846D01*
X002047Y013924D02*
X001731Y013924D01*
X001731Y014002D02*
X002047Y014002D01*
X002047Y014080D02*
X001731Y014080D01*
X001731Y014158D02*
X002047Y014158D01*
X002047Y014846D02*
X001731Y014846D01*
X001731Y015162D01*
X002047Y015162D01*
X002047Y014846D01*
X002047Y014924D02*
X001731Y014924D01*
X001731Y015002D02*
X002047Y015002D01*
X002047Y015080D02*
X001731Y015080D01*
X001731Y015158D02*
X002047Y015158D01*
X002361Y014846D02*
X002677Y014846D01*
X002361Y014846D02*
X002361Y015162D01*
X002677Y015162D01*
X002677Y014846D01*
X002677Y014924D02*
X002361Y014924D01*
X002361Y015002D02*
X002677Y015002D01*
X002677Y015080D02*
X002361Y015080D01*
X002361Y015158D02*
X002677Y015158D01*
X002677Y015846D02*
X002361Y015846D01*
X002361Y016162D01*
X002677Y016162D01*
X002677Y015846D01*
X002677Y015924D02*
X002361Y015924D01*
X002361Y016002D02*
X002677Y016002D01*
X002677Y016080D02*
X002361Y016080D01*
X002361Y016158D02*
X002677Y016158D01*
X002047Y015846D02*
X001731Y015846D01*
X001731Y016162D01*
X002047Y016162D01*
X002047Y015846D01*
X002047Y015924D02*
X001731Y015924D01*
X001731Y016002D02*
X002047Y016002D01*
X002047Y016080D02*
X001731Y016080D01*
X001731Y016158D02*
X002047Y016158D01*
X002047Y016846D02*
X001731Y016846D01*
X001731Y017162D01*
X002047Y017162D01*
X002047Y016846D01*
X002047Y016924D02*
X001731Y016924D01*
X001731Y017002D02*
X002047Y017002D01*
X002047Y017080D02*
X001731Y017080D01*
X001731Y017158D02*
X002047Y017158D01*
X002361Y016846D02*
X002677Y016846D01*
X002361Y016846D02*
X002361Y017162D01*
X002677Y017162D01*
X002677Y016846D01*
X002677Y016924D02*
X002361Y016924D01*
X002361Y017002D02*
X002677Y017002D01*
X002677Y017080D02*
X002361Y017080D01*
X002361Y017158D02*
X002677Y017158D01*
X002731Y011846D02*
X003047Y011846D01*
X002731Y011846D02*
X002731Y012162D01*
X003047Y012162D01*
X003047Y011846D01*
X003047Y011924D02*
X002731Y011924D01*
X002731Y012002D02*
X003047Y012002D01*
X003047Y012080D02*
X002731Y012080D01*
X002731Y012158D02*
X003047Y012158D01*
X003361Y011846D02*
X003677Y011846D01*
X003361Y011846D02*
X003361Y012162D01*
X003677Y012162D01*
X003677Y011846D01*
X003677Y011924D02*
X003361Y011924D01*
X003361Y012002D02*
X003677Y012002D01*
X003677Y012080D02*
X003361Y012080D01*
X003361Y012158D02*
X003677Y012158D01*
X003577Y010846D02*
X003261Y010846D01*
X003261Y011162D01*
X003577Y011162D01*
X003577Y010846D01*
X003577Y010924D02*
X003261Y010924D01*
X003261Y011002D02*
X003577Y011002D01*
X003577Y011080D02*
X003261Y011080D01*
X003261Y011158D02*
X003577Y011158D01*
X002947Y010846D02*
X002631Y010846D01*
X002631Y011162D01*
X002947Y011162D01*
X002947Y010846D01*
X002947Y010924D02*
X002631Y010924D01*
X002631Y011002D02*
X002947Y011002D01*
X002947Y011080D02*
X002631Y011080D01*
X002631Y011158D02*
X002947Y011158D01*
X002947Y009596D02*
X002631Y009596D01*
X002631Y009912D01*
X002947Y009912D01*
X002947Y009596D01*
X002947Y009674D02*
X002631Y009674D01*
X002631Y009752D02*
X002947Y009752D01*
X002947Y009830D02*
X002631Y009830D01*
X002631Y009908D02*
X002947Y009908D01*
X003261Y009596D02*
X003577Y009596D01*
X003261Y009596D02*
X003261Y009912D01*
X003577Y009912D01*
X003577Y009596D01*
X003577Y009674D02*
X003261Y009674D01*
X003261Y009752D02*
X003577Y009752D01*
X003577Y009830D02*
X003261Y009830D01*
X003261Y009908D02*
X003577Y009908D01*
X002677Y008846D02*
X002361Y008846D01*
X002361Y009162D01*
X002677Y009162D01*
X002677Y008846D01*
X002677Y008924D02*
X002361Y008924D01*
X002361Y009002D02*
X002677Y009002D01*
X002677Y009080D02*
X002361Y009080D01*
X002361Y009158D02*
X002677Y009158D01*
X002047Y008846D02*
X001731Y008846D01*
X001731Y009162D01*
X002047Y009162D01*
X002047Y008846D01*
X002047Y008924D02*
X001731Y008924D01*
X001731Y009002D02*
X002047Y009002D01*
X002047Y009080D02*
X001731Y009080D01*
X001731Y009158D02*
X002047Y009158D01*
X002047Y007846D02*
X001731Y007846D01*
X001731Y008162D01*
X002047Y008162D01*
X002047Y007846D01*
X002047Y007924D02*
X001731Y007924D01*
X001731Y008002D02*
X002047Y008002D01*
X002047Y008080D02*
X001731Y008080D01*
X001731Y008158D02*
X002047Y008158D01*
X002361Y007846D02*
X002677Y007846D01*
X002361Y007846D02*
X002361Y008162D01*
X002677Y008162D01*
X002677Y007846D01*
X002677Y007924D02*
X002361Y007924D01*
X002361Y008002D02*
X002677Y008002D01*
X002677Y008080D02*
X002361Y008080D01*
X002361Y008158D02*
X002677Y008158D01*
X002677Y006846D02*
X002361Y006846D01*
X002361Y007162D01*
X002677Y007162D01*
X002677Y006846D01*
X002677Y006924D02*
X002361Y006924D01*
X002361Y007002D02*
X002677Y007002D01*
X002677Y007080D02*
X002361Y007080D01*
X002361Y007158D02*
X002677Y007158D01*
X002047Y006846D02*
X001731Y006846D01*
X001731Y007162D01*
X002047Y007162D01*
X002047Y006846D01*
X002047Y006924D02*
X001731Y006924D01*
X001731Y007002D02*
X002047Y007002D01*
X002047Y007080D02*
X001731Y007080D01*
X001731Y007158D02*
X002047Y007158D01*
X002047Y005846D02*
X001731Y005846D01*
X001731Y006162D01*
X002047Y006162D01*
X002047Y005846D01*
X002047Y005924D02*
X001731Y005924D01*
X001731Y006002D02*
X002047Y006002D01*
X002047Y006080D02*
X001731Y006080D01*
X001731Y006158D02*
X002047Y006158D01*
X002361Y005846D02*
X002677Y005846D01*
X002361Y005846D02*
X002361Y006162D01*
X002677Y006162D01*
X002677Y005846D01*
X002677Y005924D02*
X002361Y005924D01*
X002361Y006002D02*
X002677Y006002D01*
X002677Y006080D02*
X002361Y006080D01*
X002361Y006158D02*
X002677Y006158D01*
X002731Y004846D02*
X003047Y004846D01*
X002731Y004846D02*
X002731Y005162D01*
X003047Y005162D01*
X003047Y004846D01*
X003047Y004924D02*
X002731Y004924D01*
X002731Y005002D02*
X003047Y005002D01*
X003047Y005080D02*
X002731Y005080D01*
X002731Y005158D02*
X003047Y005158D01*
X003361Y004846D02*
X003677Y004846D01*
X003361Y004846D02*
X003361Y005162D01*
X003677Y005162D01*
X003677Y004846D01*
X003677Y004924D02*
X003361Y004924D01*
X003361Y005002D02*
X003677Y005002D01*
X003677Y005080D02*
X003361Y005080D01*
X003361Y005158D02*
X003677Y005158D01*
X003677Y003846D02*
X003361Y003846D01*
X003361Y004162D01*
X003677Y004162D01*
X003677Y003846D01*
X003677Y003924D02*
X003361Y003924D01*
X003361Y004002D02*
X003677Y004002D01*
X003677Y004080D02*
X003361Y004080D01*
X003361Y004158D02*
X003677Y004158D01*
X003047Y003846D02*
X002731Y003846D01*
X002731Y004162D01*
X003047Y004162D01*
X003047Y003846D01*
X003047Y003924D02*
X002731Y003924D01*
X002731Y004002D02*
X003047Y004002D01*
X003047Y004080D02*
X002731Y004080D01*
X002731Y004158D02*
X003047Y004158D01*
X003047Y002846D02*
X002731Y002846D01*
X002731Y003162D01*
X003047Y003162D01*
X003047Y002846D01*
X003047Y002924D02*
X002731Y002924D01*
X002731Y003002D02*
X003047Y003002D01*
X003047Y003080D02*
X002731Y003080D01*
X002731Y003158D02*
X003047Y003158D01*
X003361Y002846D02*
X003677Y002846D01*
X003361Y002846D02*
X003361Y003162D01*
X003677Y003162D01*
X003677Y002846D01*
X003677Y002924D02*
X003361Y002924D01*
X003361Y003002D02*
X003677Y003002D01*
X003677Y003080D02*
X003361Y003080D01*
X003361Y003158D02*
X003677Y003158D01*
X003677Y001846D02*
X003361Y001846D01*
X003361Y002162D01*
X003677Y002162D01*
X003677Y001846D01*
X003677Y001924D02*
X003361Y001924D01*
X003361Y002002D02*
X003677Y002002D01*
X003677Y002080D02*
X003361Y002080D01*
X003361Y002158D02*
X003677Y002158D01*
X003047Y001846D02*
X002731Y001846D01*
X002731Y002162D01*
X003047Y002162D01*
X003047Y001846D01*
X003047Y001924D02*
X002731Y001924D01*
X002731Y002002D02*
X003047Y002002D01*
X003047Y002080D02*
X002731Y002080D01*
X002731Y002158D02*
X003047Y002158D01*
D19*
X004504Y001504D03*
X005704Y004204D03*
X007504Y001504D03*
X009154Y004004D03*
X011554Y005654D03*
X013654Y005704D03*
X016154Y008004D03*
X015904Y011004D03*
X010954Y010704D03*
X010904Y011804D03*
X009154Y011904D03*
X008504Y011004D03*
X007504Y010504D03*
X006504Y010504D03*
X005704Y012504D03*
X005504Y013004D03*
X005604Y015104D03*
X006704Y015104D03*
X006154Y016404D03*
X008904Y017404D03*
X009504Y017004D03*
X011704Y015954D03*
X009104Y014704D03*
X010954Y009354D03*
X010004Y009004D03*
X010004Y008504D03*
X010004Y008004D03*
X009754Y007604D03*
X009504Y007104D03*
X007604Y007104D03*
X006154Y007954D03*
X018304Y003004D03*
X019504Y003504D03*
D20*
X018554Y003004D02*
X018304Y003004D01*
X005604Y013004D02*
X005504Y013004D01*
X006604Y015954D02*
X006154Y016404D01*
X006604Y015954D02*
X011704Y015954D01*
X009004Y017454D02*
X008954Y017404D01*
X008904Y017404D01*
X005004Y001504D02*
X004504Y001504D01*
D21*
X004022Y001982D02*
X006835Y001982D01*
X006737Y002081D02*
X004121Y002081D01*
X004220Y002179D02*
X006638Y002179D01*
X006540Y002278D02*
X004318Y002278D01*
X004417Y002376D02*
X006441Y002376D01*
X006343Y002475D02*
X004515Y002475D01*
X004614Y002573D02*
X006244Y002573D01*
X006169Y002649D02*
X007084Y001734D01*
X007184Y001634D01*
X007239Y001634D01*
X007209Y001563D01*
X007209Y001445D01*
X007254Y001337D01*
X007337Y001254D01*
X007445Y001209D01*
X007563Y001209D01*
X007671Y001254D01*
X007751Y001334D01*
X011609Y001334D01*
X011606Y001331D01*
X011606Y000677D01*
X011659Y000624D01*
X001186Y000624D01*
X001401Y000839D01*
X001401Y001169D01*
X001169Y001401D01*
X000839Y001401D01*
X000624Y001186D01*
X000624Y001822D01*
X000839Y001606D01*
X001161Y001606D01*
X001434Y001334D01*
X001574Y001334D01*
X002574Y001334D01*
X002674Y001434D01*
X002927Y001687D01*
X003112Y001687D01*
X003204Y001779D01*
X003295Y001687D01*
X003742Y001687D01*
X003836Y001780D01*
X003836Y001834D01*
X003874Y001834D01*
X003974Y001934D01*
X005324Y003284D01*
X005324Y003424D01*
X005324Y005984D01*
X006013Y006672D01*
X006013Y006354D01*
X006013Y006034D01*
X006048Y005999D01*
X006141Y005999D01*
X006141Y006354D01*
X006013Y006354D01*
X006141Y006354D01*
X006141Y006354D01*
X006142Y006354D01*
X006142Y005999D01*
X006160Y005999D01*
X006169Y005990D01*
X006169Y002790D01*
X006169Y002649D01*
X006169Y002672D02*
X004712Y002672D01*
X004811Y002770D02*
X006169Y002770D01*
X006169Y002869D02*
X004909Y002869D01*
X005008Y002968D02*
X006169Y002968D01*
X006169Y003066D02*
X005106Y003066D01*
X005205Y003165D02*
X006169Y003165D01*
X006169Y003263D02*
X005304Y003263D01*
X005324Y003362D02*
X006169Y003362D01*
X006169Y003460D02*
X005324Y003460D01*
X005324Y003559D02*
X006169Y003559D01*
X006169Y003657D02*
X005324Y003657D01*
X005324Y003756D02*
X006169Y003756D01*
X006169Y003854D02*
X005324Y003854D01*
X005324Y003953D02*
X005539Y003953D01*
X005537Y003954D02*
X005645Y003909D01*
X005763Y003909D01*
X005871Y003954D01*
X005954Y004037D01*
X005999Y004145D01*
X005999Y004263D01*
X005954Y004371D01*
X005924Y004401D01*
X005924Y004454D01*
X006052Y004454D01*
X006149Y004552D01*
X006149Y005068D01*
X006079Y005138D01*
X006079Y005343D01*
X006074Y005348D01*
X006089Y005364D01*
X006089Y005548D01*
X005804Y005548D01*
X005804Y005648D01*
X005704Y005648D01*
X005704Y005894D01*
X005481Y005894D01*
X005418Y005831D01*
X005418Y005648D01*
X005704Y005648D01*
X005704Y005548D01*
X005418Y005548D01*
X005418Y005364D01*
X005434Y005348D01*
X005428Y005343D01*
X005428Y005301D01*
X005428Y005138D01*
X005358Y005068D01*
X005358Y004552D01*
X005456Y004454D01*
X005537Y004454D01*
X005537Y004454D01*
X005454Y004371D01*
X005409Y004263D01*
X005409Y004145D01*
X005454Y004037D01*
X005537Y003954D01*
X005448Y004051D02*
X005324Y004051D01*
X005324Y004150D02*
X005409Y004150D01*
X005409Y004249D02*
X005324Y004249D01*
X005324Y004347D02*
X005444Y004347D01*
X005529Y004446D02*
X005324Y004446D01*
X005324Y004544D02*
X005366Y004544D01*
X005358Y004643D02*
X005324Y004643D01*
X005324Y004741D02*
X005358Y004741D01*
X005358Y004840D02*
X005324Y004840D01*
X005324Y004938D02*
X005358Y004938D01*
X005358Y005037D02*
X005324Y005037D01*
X005324Y005135D02*
X005425Y005135D01*
X005428Y005234D02*
X005324Y005234D01*
X005324Y005333D02*
X005428Y005333D01*
X005418Y005431D02*
X005324Y005431D01*
X005324Y005530D02*
X005418Y005530D01*
X005324Y005628D02*
X005704Y005628D01*
X005754Y005598D02*
X005754Y006104D01*
X006004Y006354D01*
X006142Y006354D01*
X006142Y006355D02*
X006141Y006355D01*
X006141Y006710D01*
X006050Y006710D01*
X006174Y006834D01*
X006174Y006974D01*
X006174Y007524D01*
X006074Y007624D01*
X006000Y007699D01*
X006095Y007659D01*
X006213Y007659D01*
X006321Y007704D01*
X006404Y007787D01*
X006449Y007895D01*
X006449Y008013D01*
X006404Y008121D01*
X006321Y008204D01*
X006213Y008249D01*
X006095Y008249D01*
X005987Y008204D01*
X005904Y008121D01*
X005895Y008099D01*
X005770Y008099D01*
X005770Y008245D01*
X005770Y008441D01*
X005770Y008638D01*
X005770Y008835D01*
X005770Y009032D01*
X005770Y009229D01*
X005770Y009426D01*
X005770Y009623D01*
X005770Y009819D01*
X005770Y010016D01*
X005770Y010213D01*
X005770Y010410D01*
X005770Y010607D01*
X005770Y010804D01*
X005770Y010909D01*
X005841Y010909D01*
X005982Y010909D01*
X006334Y010909D01*
X006334Y010751D01*
X006254Y010671D01*
X006209Y010563D01*
X006209Y010445D01*
X006254Y010337D01*
X006337Y010254D01*
X006445Y010209D01*
X006563Y010209D01*
X006671Y010254D01*
X006754Y010337D01*
X006799Y010445D01*
X006799Y010563D01*
X006754Y010671D01*
X006705Y010720D01*
X006705Y012238D01*
X006851Y012238D01*
X007048Y012238D01*
X007245Y012238D01*
X007441Y012238D01*
X007638Y012238D01*
X007795Y012238D01*
X008032Y012238D01*
X008229Y012238D01*
X008426Y012238D01*
X008486Y012298D01*
X008504Y012298D01*
X008522Y012298D01*
X008582Y012238D01*
X008819Y012238D01*
X009016Y012238D01*
X009121Y012238D01*
X009121Y012199D01*
X009095Y012199D01*
X008987Y012154D01*
X008904Y012071D01*
X008859Y011963D01*
X008859Y011845D01*
X008904Y011737D01*
X008987Y011654D01*
X009095Y011609D01*
X009213Y011609D01*
X009318Y011653D01*
X009318Y011259D01*
X009234Y011174D01*
X008751Y011174D01*
X008671Y011254D01*
X008563Y011299D01*
X008445Y011299D01*
X008337Y011254D01*
X008254Y011171D01*
X008209Y011063D01*
X008209Y010945D01*
X008254Y010837D01*
X008337Y010754D01*
X008445Y010709D01*
X008563Y010709D01*
X008671Y010754D01*
X008751Y010834D01*
X009374Y010834D01*
X009474Y010934D01*
X009658Y011118D01*
X009658Y011259D01*
X009658Y012238D01*
X009804Y012238D01*
X010001Y012238D01*
X010197Y012238D01*
X010394Y012238D01*
X010591Y012238D01*
X010788Y012238D01*
X010985Y012238D01*
X011055Y012309D01*
X011055Y012484D01*
X014984Y012484D01*
X015304Y012163D01*
X015088Y012163D01*
X015059Y012134D01*
X015030Y012163D01*
X014773Y012163D01*
X014744Y012134D01*
X014715Y012163D01*
X014458Y012163D01*
X014429Y012134D01*
X014400Y012163D01*
X014143Y012163D01*
X014114Y012134D01*
X014085Y012163D01*
X013828Y012163D01*
X013799Y012134D01*
X013770Y012163D01*
X013513Y012163D01*
X013484Y012134D01*
X013455Y012163D01*
X013198Y012163D01*
X013169Y012134D01*
X013140Y012163D01*
X012883Y012163D01*
X012854Y012134D01*
X012825Y012163D01*
X012568Y012163D01*
X012498Y012093D01*
X012498Y011839D01*
X012069Y011839D01*
X012069Y011985D01*
X011999Y012055D01*
X011309Y012055D01*
X011290Y012036D01*
X011089Y012036D01*
X011071Y012054D01*
X010963Y012099D01*
X010845Y012099D01*
X010737Y012054D01*
X010654Y011971D01*
X010609Y011863D01*
X010609Y011745D01*
X010654Y011637D01*
X010737Y011554D01*
X010845Y011509D01*
X010963Y011509D01*
X011071Y011554D01*
X011154Y011637D01*
X011179Y011696D01*
X011238Y011696D01*
X011238Y011551D01*
X011238Y011354D01*
X011238Y011157D01*
X011238Y010960D01*
X011238Y010855D01*
X011211Y010855D01*
X011204Y010871D01*
X011121Y010954D01*
X011013Y010999D01*
X010895Y010999D01*
X010787Y010954D01*
X010704Y010871D01*
X010659Y010763D01*
X010659Y010645D01*
X010704Y010537D01*
X010787Y010454D01*
X010895Y010409D01*
X011013Y010409D01*
X011121Y010454D01*
X011182Y010515D01*
X011238Y010515D01*
X011238Y010370D01*
X011238Y010173D01*
X011238Y009976D01*
X011238Y009779D01*
X011238Y009582D01*
X011238Y009477D01*
X011222Y009477D01*
X011204Y009521D01*
X011121Y009604D01*
X011013Y009649D01*
X010895Y009649D01*
X010787Y009604D01*
X010704Y009521D01*
X010659Y009413D01*
X010659Y009295D01*
X010704Y009187D01*
X010787Y009104D01*
X010895Y009059D01*
X011013Y009059D01*
X011121Y009104D01*
X011154Y009137D01*
X011238Y009137D01*
X011238Y008992D01*
X011238Y008835D01*
X011238Y008598D01*
X011238Y008493D01*
X010755Y008493D01*
X010299Y008949D01*
X010299Y009063D01*
X010254Y009171D01*
X010171Y009254D01*
X010063Y009299D01*
X009945Y009299D01*
X009837Y009254D01*
X009754Y009171D01*
X009709Y009063D01*
X009709Y008945D01*
X009754Y008837D01*
X009837Y008754D01*
X009754Y008671D01*
X009709Y008563D01*
X009709Y008445D01*
X009754Y008337D01*
X009837Y008254D01*
X009754Y008171D01*
X009709Y008063D01*
X009709Y007945D01*
X009728Y007899D01*
X009695Y007899D01*
X009587Y007854D01*
X009504Y007771D01*
X009459Y007663D01*
X009459Y007545D01*
X009504Y007437D01*
X009542Y007399D01*
X009445Y007399D01*
X009337Y007354D01*
X009254Y007271D01*
X009209Y007163D01*
X009209Y007045D01*
X009254Y006937D01*
X009337Y006854D01*
X009445Y006809D01*
X009515Y006809D01*
X009515Y006770D01*
X009370Y006770D01*
X009173Y006770D01*
X008976Y006770D01*
X008779Y006770D01*
X008582Y006770D01*
X008522Y006710D01*
X008504Y006710D01*
X008504Y006355D01*
X008504Y006355D01*
X008504Y006710D01*
X008486Y006710D01*
X008426Y006770D01*
X008188Y006770D01*
X007992Y006770D01*
X007795Y006770D01*
X007598Y006770D01*
X007401Y006770D01*
X007310Y006770D01*
X007416Y006875D01*
X007437Y006854D01*
X007545Y006809D01*
X007663Y006809D01*
X007771Y006854D01*
X007854Y006937D01*
X007899Y007045D01*
X007899Y007163D01*
X007854Y007271D01*
X007771Y007354D01*
X007663Y007399D01*
X007545Y007399D01*
X007437Y007354D01*
X007357Y007274D01*
X007334Y007274D01*
X007234Y007174D01*
X006956Y006896D01*
X006956Y006770D01*
X006811Y006770D01*
X006614Y006770D01*
X006417Y006770D01*
X006220Y006770D01*
X006160Y006710D01*
X006142Y006710D01*
X006142Y006355D01*
X006141Y006318D02*
X006142Y006318D01*
X006141Y006219D02*
X006142Y006219D01*
X006141Y006121D02*
X006142Y006121D01*
X006141Y006022D02*
X006142Y006022D01*
X006169Y005924D02*
X005324Y005924D01*
X005324Y005825D02*
X005418Y005825D01*
X005418Y005727D02*
X005324Y005727D01*
X005363Y006022D02*
X006025Y006022D01*
X006013Y006121D02*
X005461Y006121D01*
X005560Y006219D02*
X006013Y006219D01*
X006013Y006318D02*
X005658Y006318D01*
X005757Y006417D02*
X006013Y006417D01*
X006013Y006515D02*
X005855Y006515D01*
X005954Y006614D02*
X006013Y006614D01*
X006053Y006712D02*
X006163Y006712D01*
X006151Y006811D02*
X006956Y006811D01*
X006969Y006909D02*
X006174Y006909D01*
X006174Y007008D02*
X007067Y007008D01*
X007166Y007106D02*
X006174Y007106D01*
X006174Y007205D02*
X007264Y007205D01*
X007234Y007174D02*
X007234Y007174D01*
X007404Y007104D02*
X007604Y007104D01*
X007404Y007104D02*
X007126Y006826D01*
X007126Y006354D01*
X006929Y006354D02*
X006929Y005729D01*
X006804Y005604D01*
X006804Y003054D01*
X007504Y002354D01*
X010054Y002354D01*
X010104Y002404D01*
X017354Y002404D01*
X017504Y002254D01*
X017504Y001504D01*
X018004Y001004D01*
X017606Y000997D02*
X017401Y000997D01*
X017401Y001095D02*
X017606Y001095D01*
X017606Y001161D02*
X017606Y000839D01*
X017822Y000624D01*
X017186Y000624D01*
X017401Y000839D01*
X017401Y001169D01*
X017169Y001401D01*
X016847Y001401D01*
X016574Y001674D01*
X016434Y001674D01*
X016236Y001674D01*
X016401Y001839D01*
X016401Y002169D01*
X016336Y002234D01*
X016757Y002234D01*
X016666Y002144D01*
X016666Y002033D01*
X016975Y002033D01*
X016975Y001975D01*
X017033Y001975D01*
X017033Y001666D01*
X017144Y001666D01*
X017334Y001857D01*
X017334Y001574D01*
X017334Y001434D01*
X017606Y001161D01*
X017574Y001194D02*
X017376Y001194D01*
X017278Y001292D02*
X017475Y001292D01*
X017377Y001391D02*
X017179Y001391D01*
X017334Y001489D02*
X016759Y001489D01*
X016660Y001588D02*
X017334Y001588D01*
X017334Y001686D02*
X017164Y001686D01*
X017033Y001686D02*
X016975Y001686D01*
X016975Y001666D02*
X016864Y001666D01*
X016666Y001864D01*
X016666Y001975D01*
X016975Y001975D01*
X016975Y001666D01*
X016975Y001785D02*
X017033Y001785D01*
X017033Y001884D02*
X016975Y001884D01*
X016975Y001982D02*
X016401Y001982D01*
X016401Y001884D02*
X016666Y001884D01*
X016746Y001785D02*
X016347Y001785D01*
X016249Y001686D02*
X016844Y001686D01*
X016504Y001504D02*
X017004Y001004D01*
X017263Y000701D02*
X017745Y000701D01*
X017646Y000800D02*
X017362Y000800D01*
X017401Y000898D02*
X017606Y000898D01*
X018504Y001504D02*
X019004Y001004D01*
X019278Y001292D02*
X020304Y001292D01*
X020304Y001194D02*
X019376Y001194D01*
X019401Y001169D02*
X019169Y001401D01*
X018847Y001401D01*
X018674Y001574D01*
X018674Y001772D01*
X018839Y001606D01*
X019169Y001606D01*
X019401Y001839D01*
X019401Y002169D01*
X019169Y002401D01*
X018839Y002401D01*
X018674Y002236D01*
X018674Y002274D01*
X018124Y002824D01*
X017984Y002824D01*
X016414Y002824D01*
X019474Y005884D01*
X019474Y006024D01*
X019474Y006879D01*
X019510Y006915D01*
X019510Y007526D01*
X019439Y007596D01*
X019183Y007596D01*
X019154Y007567D01*
X019124Y007596D01*
X018868Y007596D01*
X018839Y007567D01*
X018810Y007596D01*
X018553Y007596D01*
X018524Y007567D01*
X018495Y007596D01*
X018238Y007596D01*
X018209Y007567D01*
X018180Y007596D01*
X017923Y007596D01*
X017894Y007567D01*
X017865Y007596D01*
X017608Y007596D01*
X017579Y007567D01*
X017550Y007596D01*
X017293Y007596D01*
X017264Y007567D01*
X017235Y007596D01*
X016978Y007596D01*
X016949Y007567D01*
X016920Y007596D01*
X016663Y007596D01*
X016634Y007567D01*
X016605Y007596D01*
X016348Y007596D01*
X016331Y007580D01*
X016331Y007764D01*
X016404Y007837D01*
X016449Y007945D01*
X016449Y008063D01*
X016404Y008171D01*
X016321Y008254D01*
X016213Y008299D01*
X016095Y008299D01*
X015987Y008254D01*
X015904Y008171D01*
X015859Y008063D01*
X015859Y007945D01*
X015904Y007837D01*
X015987Y007754D01*
X015991Y007752D01*
X015991Y007555D01*
X015963Y007526D01*
X015963Y007524D01*
X015950Y007536D01*
X015847Y007536D01*
X015847Y007221D01*
X015846Y007221D01*
X015846Y007536D01*
X015743Y007536D01*
X015730Y007524D01*
X015730Y007526D01*
X015724Y007532D01*
X015724Y008224D01*
X015624Y008324D01*
X014319Y009629D01*
X015274Y010584D01*
X015374Y010684D01*
X015374Y011440D01*
X015374Y011441D01*
X015403Y011411D01*
X015660Y011411D01*
X015676Y011428D01*
X015676Y011194D01*
X015654Y011171D01*
X015609Y011063D01*
X015609Y010945D01*
X015654Y010837D01*
X015737Y010754D01*
X015845Y010709D01*
X015963Y010709D01*
X016071Y010754D01*
X016154Y010837D01*
X016199Y010945D01*
X016199Y011063D01*
X016154Y011171D01*
X016071Y011254D01*
X016016Y011277D01*
X016016Y011453D01*
X016045Y011482D01*
X016045Y011484D01*
X016058Y011471D01*
X016161Y011471D01*
X016161Y011787D01*
X016162Y011787D01*
X016162Y011471D01*
X016265Y011471D01*
X016278Y011484D01*
X016278Y011482D01*
X016348Y011411D01*
X016605Y011411D01*
X016634Y011441D01*
X016663Y011411D01*
X016920Y011411D01*
X016949Y011441D01*
X016978Y011411D01*
X017235Y011411D01*
X017264Y011441D01*
X017293Y011411D01*
X017550Y011411D01*
X017579Y011441D01*
X017608Y011411D01*
X017865Y011411D01*
X017894Y011441D01*
X017923Y011411D01*
X018180Y011411D01*
X018209Y011441D01*
X018238Y011411D01*
X018495Y011411D01*
X018524Y011441D01*
X018553Y011411D01*
X018810Y011411D01*
X018839Y011441D01*
X018868Y011411D01*
X019124Y011411D01*
X019154Y011441D01*
X019183Y011411D01*
X019439Y011411D01*
X019510Y011482D01*
X019510Y011746D01*
X019524Y011760D01*
X019524Y011901D01*
X019524Y013174D01*
X019424Y013274D01*
X017274Y015424D01*
X017134Y015424D01*
X009624Y015424D01*
X009294Y015754D01*
X011487Y015754D01*
X011537Y015704D01*
X011645Y015659D01*
X011763Y015659D01*
X011871Y015704D01*
X011954Y015787D01*
X011999Y015895D01*
X011999Y016013D01*
X011954Y016121D01*
X011871Y016204D01*
X011763Y016249D01*
X011645Y016249D01*
X011537Y016204D01*
X011487Y016154D01*
X006687Y016154D01*
X006449Y016392D01*
X006449Y016463D01*
X006404Y016571D01*
X006321Y016654D01*
X006213Y016699D01*
X006095Y016699D01*
X005987Y016654D01*
X005904Y016571D01*
X005859Y016463D01*
X005859Y016345D01*
X005904Y016237D01*
X005987Y016154D01*
X006095Y016109D01*
X006166Y016109D01*
X006521Y015754D01*
X006687Y015754D01*
X008014Y015754D01*
X007934Y015674D01*
X007634Y015374D01*
X007634Y015234D01*
X007634Y013234D01*
X007734Y013134D01*
X007799Y013069D01*
X007795Y013069D01*
X007638Y013069D01*
X007441Y013069D01*
X007245Y013069D01*
X007048Y013069D01*
X006851Y013069D01*
X006705Y013069D01*
X006705Y013304D01*
X007052Y013304D01*
X007149Y013402D01*
X007149Y013918D01*
X007079Y013988D01*
X007079Y014119D01*
X007149Y014189D01*
X007149Y014706D01*
X007052Y014804D01*
X006924Y014804D01*
X006924Y014907D01*
X006954Y014937D01*
X006999Y015045D01*
X006999Y015163D01*
X006954Y015271D01*
X006871Y015354D01*
X006763Y015399D01*
X006645Y015399D01*
X006537Y015354D01*
X006454Y015271D01*
X006409Y015163D01*
X006409Y015045D01*
X006454Y014937D01*
X006537Y014854D01*
X006584Y014834D01*
X006584Y014804D01*
X006456Y014804D01*
X006358Y014706D01*
X006358Y014189D01*
X006428Y014119D01*
X006428Y013988D01*
X006358Y013918D01*
X006358Y013402D01*
X006365Y013395D01*
X006365Y013371D01*
X006365Y013069D01*
X006260Y013069D01*
X006023Y013069D01*
X005953Y012999D01*
X005953Y012824D01*
X005924Y012824D01*
X005783Y012824D01*
X005759Y012799D01*
X005645Y012799D01*
X005537Y012754D01*
X005454Y012671D01*
X005409Y012563D01*
X005409Y012489D01*
X005324Y012574D01*
X005324Y013240D01*
X005388Y013304D01*
X005802Y013304D01*
X005899Y013402D01*
X005899Y013918D01*
X005829Y013988D01*
X005829Y014119D01*
X005899Y014189D01*
X005899Y014706D01*
X005802Y014804D01*
X005674Y014804D01*
X005674Y014814D01*
X005771Y014854D01*
X005854Y014937D01*
X005899Y015045D01*
X005899Y015163D01*
X005854Y015271D01*
X005771Y015354D01*
X005663Y015399D01*
X005545Y015399D01*
X005437Y015354D01*
X005354Y015271D01*
X005309Y015163D01*
X005309Y015045D01*
X005334Y014985D01*
X005334Y014934D01*
X005334Y014804D01*
X005206Y014804D01*
X005108Y014706D01*
X005108Y014189D01*
X005178Y014119D01*
X005178Y013988D01*
X005108Y013918D01*
X005108Y013505D01*
X005074Y013471D01*
X005074Y016534D01*
X005074Y016674D01*
X004674Y017074D01*
X004574Y017174D01*
X002836Y017174D01*
X002836Y017227D01*
X002742Y017321D01*
X002295Y017321D01*
X002204Y017229D01*
X002112Y017321D01*
X001665Y017321D01*
X001572Y017227D01*
X001572Y017174D01*
X001364Y017174D01*
X001341Y017229D01*
X001229Y017341D01*
X001083Y017401D01*
X000925Y017401D01*
X000779Y017341D01*
X000667Y017229D01*
X000624Y017125D01*
X000624Y017822D01*
X000839Y017606D01*
X001169Y017606D01*
X001401Y017839D01*
X001401Y018169D01*
X001169Y018401D01*
X000839Y018401D01*
X000624Y018186D01*
X000624Y018480D01*
X020304Y018480D01*
X020304Y000624D01*
X019186Y000624D01*
X019401Y000839D01*
X019401Y001169D01*
X019401Y001095D02*
X020304Y001095D01*
X020304Y000997D02*
X019401Y000997D01*
X019401Y000898D02*
X020304Y000898D01*
X020304Y000800D02*
X019362Y000800D01*
X019263Y000701D02*
X020304Y000701D01*
X020304Y001391D02*
X019179Y001391D01*
X019249Y001686D02*
X020304Y001686D01*
X020304Y001588D02*
X018674Y001588D01*
X018674Y001686D02*
X018759Y001686D01*
X018759Y001489D02*
X020304Y001489D01*
X020304Y001785D02*
X019347Y001785D01*
X019401Y001884D02*
X020304Y001884D01*
X020304Y001982D02*
X019401Y001982D01*
X019401Y002081D02*
X020304Y002081D01*
X020304Y002179D02*
X019391Y002179D01*
X019292Y002278D02*
X020304Y002278D01*
X020304Y002376D02*
X019194Y002376D01*
X018814Y002376D02*
X018572Y002376D01*
X018671Y002278D02*
X018716Y002278D01*
X018504Y002204D02*
X018054Y002654D01*
X009954Y002654D01*
X009854Y002554D01*
X007604Y002554D01*
X007054Y003104D01*
X007054Y005504D01*
X007323Y005773D01*
X007323Y006354D01*
X007520Y006354D02*
X007520Y005670D01*
X007254Y005404D01*
X007254Y003254D01*
X007704Y002804D01*
X009704Y002804D01*
X009804Y002904D01*
X016254Y002904D01*
X019304Y005954D01*
X019304Y007213D01*
X019311Y007220D01*
X019510Y007205D02*
X019784Y007205D01*
X019784Y007303D02*
X019510Y007303D01*
X019510Y007402D02*
X019784Y007402D01*
X019784Y007501D02*
X019510Y007501D01*
X019784Y007599D02*
X016331Y007599D01*
X016331Y007698D02*
X019784Y007698D01*
X019784Y007796D02*
X016363Y007796D01*
X016428Y007895D02*
X019784Y007895D01*
X019784Y007993D02*
X016449Y007993D01*
X016437Y008092D02*
X019784Y008092D01*
X019784Y008190D02*
X016385Y008190D01*
X016237Y008289D02*
X019784Y008289D01*
X019784Y008387D02*
X015561Y008387D01*
X015659Y008289D02*
X016071Y008289D01*
X015923Y008190D02*
X015724Y008190D01*
X015724Y008092D02*
X015871Y008092D01*
X015859Y007993D02*
X015724Y007993D01*
X015724Y007895D02*
X015880Y007895D01*
X015945Y007796D02*
X015724Y007796D01*
X015724Y007698D02*
X015991Y007698D01*
X015991Y007599D02*
X015724Y007599D01*
X015846Y007501D02*
X015847Y007501D01*
X015846Y007402D02*
X015847Y007402D01*
X015846Y007303D02*
X015847Y007303D01*
X015847Y007220D02*
X015847Y006905D01*
X015950Y006905D01*
X015963Y006917D01*
X015963Y006915D01*
X016033Y006845D01*
X016104Y006845D01*
X014584Y005324D01*
X013371Y005324D01*
X013399Y005352D01*
X013399Y005440D01*
X013490Y005440D01*
X013520Y005440D01*
X013595Y005409D01*
X013713Y005409D01*
X013821Y005454D01*
X013904Y005537D01*
X013949Y005645D01*
X013949Y005763D01*
X013904Y005871D01*
X013821Y005954D01*
X013713Y005999D01*
X013595Y005999D01*
X013487Y005954D01*
X013404Y005871D01*
X013399Y005860D01*
X013399Y005868D01*
X013329Y005938D01*
X013329Y006143D01*
X013324Y006148D01*
X013339Y006164D01*
X013339Y006348D01*
X013054Y006348D01*
X013054Y006448D01*
X012954Y006448D01*
X012954Y006694D01*
X012731Y006694D01*
X012668Y006631D01*
X012668Y006448D01*
X012954Y006448D01*
X012954Y006348D01*
X012668Y006348D01*
X012668Y006164D01*
X012684Y006148D01*
X012678Y006143D01*
X012678Y006101D01*
X012678Y005938D01*
X012608Y005868D01*
X012608Y005352D01*
X012636Y005324D01*
X012521Y005324D01*
X012549Y005352D01*
X012549Y005868D01*
X012479Y005938D01*
X012479Y006069D01*
X012549Y006139D01*
X012549Y006656D01*
X012452Y006754D01*
X011856Y006754D01*
X011758Y006656D01*
X011758Y006568D01*
X011681Y006568D01*
X011024Y007224D01*
X011024Y008153D01*
X011238Y008153D01*
X011238Y008007D01*
X011238Y007811D01*
X011238Y007614D01*
X011238Y007417D01*
X011238Y007220D01*
X011298Y007160D01*
X011298Y007142D01*
X011653Y007142D01*
X011653Y007141D01*
X011654Y007141D01*
X011654Y007013D01*
X011974Y007013D01*
X012009Y007048D01*
X012009Y007141D01*
X011654Y007141D01*
X011654Y007142D01*
X012009Y007142D01*
X012009Y007160D01*
X012017Y007169D01*
X012498Y007169D01*
X012498Y006915D01*
X012568Y006845D01*
X012825Y006845D01*
X012854Y006874D01*
X012883Y006845D01*
X013140Y006845D01*
X013169Y006874D01*
X013198Y006845D01*
X013455Y006845D01*
X013484Y006874D01*
X013513Y006845D01*
X013770Y006845D01*
X013799Y006874D01*
X013828Y006845D01*
X014085Y006845D01*
X014114Y006874D01*
X014143Y006845D01*
X014400Y006845D01*
X014429Y006874D01*
X014458Y006845D01*
X014715Y006845D01*
X014744Y006874D01*
X014773Y006845D01*
X015030Y006845D01*
X015059Y006874D01*
X015088Y006845D01*
X015345Y006845D01*
X015374Y006874D01*
X015403Y006845D01*
X015660Y006845D01*
X015730Y006915D01*
X015730Y006917D01*
X015743Y006905D01*
X015846Y006905D01*
X015846Y007220D01*
X015847Y007220D01*
X015846Y007205D02*
X015847Y007205D01*
X015846Y007106D02*
X015847Y007106D01*
X015846Y007008D02*
X015847Y007008D01*
X015846Y006909D02*
X015847Y006909D01*
X015955Y006909D02*
X015968Y006909D01*
X016070Y006811D02*
X011438Y006811D01*
X011536Y006712D02*
X011815Y006712D01*
X011758Y006614D02*
X011635Y006614D01*
X011610Y006398D02*
X010854Y007154D01*
X010854Y008273D01*
X010804Y008323D01*
X011654Y008323D01*
X011654Y008520D02*
X013538Y008520D01*
X014254Y007804D01*
X014254Y007238D01*
X014272Y007220D01*
X014554Y007253D02*
X014587Y007220D01*
X014554Y007253D02*
X014554Y007854D01*
X013691Y008717D01*
X011654Y008717D01*
X011654Y008913D02*
X013945Y008913D01*
X014904Y007954D01*
X014904Y007223D01*
X014902Y007220D01*
X015204Y007233D02*
X015217Y007220D01*
X015204Y007233D02*
X015204Y008004D01*
X014098Y009110D01*
X011654Y009110D01*
X011654Y009307D02*
X011001Y009307D01*
X010954Y009354D01*
X011155Y009570D02*
X011238Y009570D01*
X011238Y009668D02*
X005770Y009668D01*
X005770Y009570D02*
X010753Y009570D01*
X010683Y009471D02*
X005770Y009471D01*
X005770Y009373D02*
X010659Y009373D01*
X010668Y009274D02*
X010122Y009274D01*
X010249Y009176D02*
X010715Y009176D01*
X010851Y009077D02*
X010293Y009077D01*
X010299Y008979D02*
X011238Y008979D01*
X011238Y009077D02*
X011057Y009077D01*
X011238Y008880D02*
X010368Y008880D01*
X010467Y008782D02*
X011238Y008782D01*
X011238Y008683D02*
X010565Y008683D01*
X010664Y008584D02*
X011238Y008584D01*
X011238Y008092D02*
X011024Y008092D01*
X011024Y007993D02*
X011238Y007993D01*
X011238Y007895D02*
X011024Y007895D01*
X011024Y007796D02*
X011238Y007796D01*
X011238Y007698D02*
X011024Y007698D01*
X011024Y007599D02*
X011238Y007599D01*
X011238Y007501D02*
X011024Y007501D01*
X011024Y007402D02*
X011238Y007402D01*
X011238Y007303D02*
X011024Y007303D01*
X011043Y007205D02*
X011253Y007205D01*
X011298Y007141D02*
X011298Y007048D01*
X011333Y007013D01*
X011653Y007013D01*
X011653Y007141D01*
X011298Y007141D01*
X011298Y007106D02*
X011142Y007106D01*
X011240Y007008D02*
X012498Y007008D01*
X012498Y007106D02*
X012009Y007106D01*
X012166Y007142D02*
X012804Y006504D01*
X013004Y006504D01*
X013004Y006398D01*
X013054Y006417D02*
X015676Y006417D01*
X015775Y006515D02*
X013339Y006515D01*
X013339Y006448D02*
X013339Y006631D01*
X013277Y006694D01*
X013054Y006694D01*
X013054Y006448D01*
X013339Y006448D01*
X013339Y006318D02*
X015578Y006318D01*
X015479Y006219D02*
X013339Y006219D01*
X013329Y006121D02*
X015381Y006121D01*
X015282Y006022D02*
X013329Y006022D01*
X013344Y005924D02*
X013457Y005924D01*
X013654Y005704D02*
X013560Y005610D01*
X013004Y005610D01*
X013380Y005333D02*
X014592Y005333D01*
X014691Y005431D02*
X013766Y005431D01*
X013897Y005530D02*
X014789Y005530D01*
X014888Y005628D02*
X013942Y005628D01*
X013949Y005727D02*
X014986Y005727D01*
X015085Y005825D02*
X013923Y005825D01*
X013851Y005924D02*
X015183Y005924D01*
X014654Y005154D02*
X011354Y005154D01*
X010866Y005642D01*
X010866Y006354D01*
X010669Y006354D02*
X010669Y005339D01*
X011104Y004904D01*
X015204Y004904D01*
X016804Y006504D01*
X016804Y007208D01*
X016791Y007220D01*
X016504Y007193D02*
X016504Y007004D01*
X014654Y005154D01*
X015354Y004654D02*
X010354Y004654D01*
X009291Y005717D01*
X009291Y006354D01*
X009095Y006354D02*
X009095Y005613D01*
X010304Y004404D01*
X015454Y004404D01*
X017454Y006404D01*
X017454Y007188D01*
X017421Y007220D01*
X017154Y007173D02*
X017106Y007220D01*
X017154Y007173D02*
X017154Y006454D01*
X015354Y004654D01*
X015554Y004154D02*
X010254Y004154D01*
X008898Y005510D01*
X008898Y006354D01*
X008701Y006354D02*
X008701Y005407D01*
X010204Y003904D01*
X015854Y003904D01*
X018054Y006104D01*
X018054Y007218D01*
X018051Y007220D01*
X017754Y007203D02*
X017736Y007220D01*
X017754Y007203D02*
X017754Y006354D01*
X015554Y004154D01*
X016004Y003654D02*
X018404Y006054D01*
X018404Y007183D01*
X018366Y007220D01*
X018681Y007220D02*
X018704Y007198D01*
X018704Y006054D01*
X016054Y003404D01*
X009554Y003404D01*
X009454Y003304D01*
X007904Y003304D01*
X007754Y003454D01*
X007754Y005254D01*
X008110Y005610D01*
X008110Y006354D01*
X007913Y006354D02*
X007913Y005763D01*
X007504Y005354D01*
X007504Y003354D01*
X007804Y003054D01*
X009554Y003054D01*
X009654Y003154D01*
X016154Y003154D01*
X018996Y005996D01*
X018996Y007220D01*
X019510Y007106D02*
X019784Y007106D01*
X019784Y007008D02*
X019510Y007008D01*
X019504Y006909D02*
X019784Y006909D01*
X019784Y006811D02*
X019474Y006811D01*
X019474Y006712D02*
X019784Y006712D01*
X019784Y006614D02*
X019474Y006614D01*
X019474Y006515D02*
X019784Y006515D01*
X019784Y006417D02*
X019474Y006417D01*
X019474Y006318D02*
X019784Y006318D01*
X019784Y006219D02*
X019474Y006219D01*
X019474Y006121D02*
X019784Y006121D01*
X019784Y006022D02*
X019474Y006022D01*
X019474Y005924D02*
X019784Y005924D01*
X019784Y005825D02*
X019416Y005825D01*
X019317Y005727D02*
X019784Y005727D01*
X019784Y005628D02*
X019219Y005628D01*
X019120Y005530D02*
X019784Y005530D01*
X019784Y005431D02*
X019021Y005431D01*
X018923Y005333D02*
X019784Y005333D01*
X019784Y005234D02*
X018824Y005234D01*
X018726Y005135D02*
X019784Y005135D01*
X019784Y005037D02*
X018627Y005037D01*
X018529Y004938D02*
X019784Y004938D01*
X019784Y004840D02*
X018430Y004840D01*
X018332Y004741D02*
X019784Y004741D01*
X019784Y004643D02*
X018233Y004643D01*
X018135Y004544D02*
X019784Y004544D01*
X019784Y004446D02*
X018036Y004446D01*
X017937Y004347D02*
X019784Y004347D01*
X019784Y004249D02*
X017839Y004249D01*
X017740Y004150D02*
X019784Y004150D01*
X019784Y004051D02*
X017642Y004051D01*
X017543Y003953D02*
X019713Y003953D01*
X019784Y004024D02*
X019559Y003799D01*
X019445Y003799D01*
X019337Y003754D01*
X019254Y003671D01*
X019209Y003563D01*
X019209Y003445D01*
X019254Y003337D01*
X019337Y003254D01*
X019445Y003209D01*
X019563Y003209D01*
X019671Y003254D01*
X019754Y003337D01*
X019799Y003445D01*
X019799Y003559D01*
X020304Y003559D01*
X020304Y003657D02*
X019898Y003657D01*
X019996Y003756D02*
X020304Y003756D01*
X020304Y003854D02*
X020095Y003854D01*
X020124Y003884D02*
X020124Y004024D01*
X020124Y014424D01*
X020024Y014524D01*
X017374Y017174D01*
X017234Y017174D01*
X009751Y017174D01*
X009671Y017254D01*
X009563Y017299D01*
X009445Y017299D01*
X009337Y017254D01*
X009254Y017171D01*
X009209Y017063D01*
X009209Y016945D01*
X009254Y016837D01*
X009337Y016754D01*
X009445Y016709D01*
X009563Y016709D01*
X009671Y016754D01*
X009751Y016834D01*
X017234Y016834D01*
X019784Y014284D01*
X019784Y004024D01*
X019954Y003954D02*
X019504Y003504D01*
X019764Y003362D02*
X020304Y003362D01*
X020304Y003460D02*
X019799Y003460D01*
X019799Y003559D02*
X020124Y003884D01*
X020124Y003953D02*
X020304Y003953D01*
X020304Y004051D02*
X020124Y004051D01*
X020124Y004150D02*
X020304Y004150D01*
X020304Y004249D02*
X020124Y004249D01*
X020124Y004347D02*
X020304Y004347D01*
X020304Y004446D02*
X020124Y004446D01*
X020124Y004544D02*
X020304Y004544D01*
X020304Y004643D02*
X020124Y004643D01*
X020124Y004741D02*
X020304Y004741D01*
X020304Y004840D02*
X020124Y004840D01*
X020124Y004938D02*
X020304Y004938D01*
X020304Y005037D02*
X020124Y005037D01*
X020124Y005135D02*
X020304Y005135D01*
X020304Y005234D02*
X020124Y005234D01*
X020124Y005333D02*
X020304Y005333D01*
X020304Y005431D02*
X020124Y005431D01*
X020124Y005530D02*
X020304Y005530D01*
X020304Y005628D02*
X020124Y005628D01*
X020124Y005727D02*
X020304Y005727D01*
X020304Y005825D02*
X020124Y005825D01*
X020124Y005924D02*
X020304Y005924D01*
X020304Y006022D02*
X020124Y006022D01*
X020124Y006121D02*
X020304Y006121D01*
X020304Y006219D02*
X020124Y006219D01*
X020124Y006318D02*
X020304Y006318D01*
X020304Y006417D02*
X020124Y006417D01*
X020124Y006515D02*
X020304Y006515D01*
X020304Y006614D02*
X020124Y006614D01*
X020124Y006712D02*
X020304Y006712D01*
X020304Y006811D02*
X020124Y006811D01*
X020124Y006909D02*
X020304Y006909D01*
X020304Y007008D02*
X020124Y007008D01*
X020124Y007106D02*
X020304Y007106D01*
X020304Y007205D02*
X020124Y007205D01*
X020124Y007303D02*
X020304Y007303D01*
X020304Y007402D02*
X020124Y007402D01*
X020124Y007501D02*
X020304Y007501D01*
X020304Y007599D02*
X020124Y007599D01*
X020124Y007698D02*
X020304Y007698D01*
X020304Y007796D02*
X020124Y007796D01*
X020124Y007895D02*
X020304Y007895D01*
X020304Y007993D02*
X020124Y007993D01*
X020124Y008092D02*
X020304Y008092D01*
X020304Y008190D02*
X020124Y008190D01*
X020124Y008289D02*
X020304Y008289D01*
X020304Y008387D02*
X020124Y008387D01*
X020124Y008486D02*
X020304Y008486D01*
X020304Y008584D02*
X020124Y008584D01*
X020124Y008683D02*
X020304Y008683D01*
X020304Y008782D02*
X020124Y008782D01*
X020124Y008880D02*
X020304Y008880D01*
X020304Y008979D02*
X020124Y008979D01*
X020124Y009077D02*
X020304Y009077D01*
X020304Y009176D02*
X020124Y009176D01*
X020124Y009274D02*
X020304Y009274D01*
X020304Y009373D02*
X020124Y009373D01*
X020124Y009471D02*
X020304Y009471D01*
X020304Y009570D02*
X020124Y009570D01*
X020124Y009668D02*
X020304Y009668D01*
X020304Y009767D02*
X020124Y009767D01*
X020124Y009866D02*
X020304Y009866D01*
X020304Y009964D02*
X020124Y009964D01*
X020124Y010063D02*
X020304Y010063D01*
X020304Y010161D02*
X020124Y010161D01*
X020124Y010260D02*
X020304Y010260D01*
X020304Y010358D02*
X020124Y010358D01*
X020124Y010457D02*
X020304Y010457D01*
X020304Y010555D02*
X020124Y010555D01*
X020124Y010654D02*
X020304Y010654D01*
X020304Y010752D02*
X020124Y010752D01*
X020124Y010851D02*
X020304Y010851D01*
X020304Y010950D02*
X020124Y010950D01*
X020124Y011048D02*
X020304Y011048D01*
X020304Y011147D02*
X020124Y011147D01*
X020124Y011245D02*
X020304Y011245D01*
X020304Y011344D02*
X020124Y011344D01*
X020124Y011442D02*
X020304Y011442D01*
X020304Y011541D02*
X020124Y011541D01*
X020124Y011639D02*
X020304Y011639D01*
X020304Y011738D02*
X020124Y011738D01*
X020124Y011836D02*
X020304Y011836D01*
X020304Y011935D02*
X020124Y011935D01*
X020124Y012034D02*
X020304Y012034D01*
X020304Y012132D02*
X020124Y012132D01*
X020124Y012231D02*
X020304Y012231D01*
X020304Y012329D02*
X020124Y012329D01*
X020124Y012428D02*
X020304Y012428D01*
X020304Y012526D02*
X020124Y012526D01*
X020124Y012625D02*
X020304Y012625D01*
X020304Y012723D02*
X020124Y012723D01*
X020124Y012822D02*
X020304Y012822D01*
X020304Y012920D02*
X020124Y012920D01*
X020124Y013019D02*
X020304Y013019D01*
X020304Y013117D02*
X020124Y013117D01*
X020124Y013216D02*
X020304Y013216D01*
X020304Y013315D02*
X020124Y013315D01*
X020124Y013413D02*
X020304Y013413D01*
X020304Y013512D02*
X020124Y013512D01*
X020124Y013610D02*
X020304Y013610D01*
X020304Y013709D02*
X020124Y013709D01*
X020124Y013807D02*
X020304Y013807D01*
X020304Y013906D02*
X020124Y013906D01*
X020124Y014004D02*
X020304Y014004D01*
X020304Y014103D02*
X020124Y014103D01*
X020124Y014201D02*
X020304Y014201D01*
X020304Y014300D02*
X020124Y014300D01*
X020124Y014399D02*
X020304Y014399D01*
X020304Y014497D02*
X020051Y014497D01*
X019953Y014596D02*
X020304Y014596D01*
X020304Y014694D02*
X019854Y014694D01*
X019756Y014793D02*
X020304Y014793D01*
X020304Y014891D02*
X019657Y014891D01*
X019558Y014990D02*
X020304Y014990D01*
X020304Y015088D02*
X019460Y015088D01*
X019361Y015187D02*
X020304Y015187D01*
X020304Y015285D02*
X019263Y015285D01*
X019164Y015384D02*
X020304Y015384D01*
X020304Y015483D02*
X019066Y015483D01*
X018967Y015581D02*
X020304Y015581D01*
X020304Y015680D02*
X018869Y015680D01*
X018770Y015778D02*
X020304Y015778D01*
X020304Y015877D02*
X018672Y015877D01*
X018573Y015975D02*
X020304Y015975D01*
X020304Y016074D02*
X018474Y016074D01*
X018376Y016172D02*
X020304Y016172D01*
X020304Y016271D02*
X018277Y016271D01*
X018179Y016369D02*
X020304Y016369D01*
X020304Y016468D02*
X018080Y016468D01*
X017982Y016566D02*
X020304Y016566D01*
X020304Y016665D02*
X017883Y016665D01*
X017785Y016764D02*
X020304Y016764D01*
X020304Y016862D02*
X017686Y016862D01*
X017588Y016961D02*
X020304Y016961D01*
X020304Y017059D02*
X017489Y017059D01*
X017390Y017158D02*
X020304Y017158D01*
X020304Y017256D02*
X009665Y017256D01*
X009342Y017256D02*
X002807Y017256D01*
X002519Y017004D02*
X004504Y017004D01*
X004904Y016604D01*
X004904Y011354D01*
X004982Y011276D01*
X005354Y011276D01*
X005354Y011079D02*
X005912Y011079D01*
X005912Y011896D01*
X005704Y012104D01*
X005554Y012104D01*
X005154Y012504D01*
X005154Y013310D01*
X005504Y013660D01*
X005178Y014004D02*
X005074Y014004D01*
X005074Y013906D02*
X005108Y013906D01*
X005108Y013807D02*
X005074Y013807D01*
X005074Y013709D02*
X005108Y013709D01*
X005108Y013610D02*
X005074Y013610D01*
X005074Y013512D02*
X005108Y013512D01*
X005324Y013216D02*
X006365Y013216D01*
X006365Y013117D02*
X005324Y013117D01*
X005324Y013019D02*
X005973Y013019D01*
X005953Y012920D02*
X005324Y012920D01*
X005324Y012822D02*
X005781Y012822D01*
X005854Y012654D02*
X005704Y012504D01*
X005854Y012654D02*
X006142Y012654D01*
X006535Y012654D02*
X006535Y010535D01*
X006504Y010504D01*
X006504Y011004D01*
X006429Y011079D01*
X005912Y011079D01*
X005770Y010851D02*
X006334Y010851D01*
X006334Y010752D02*
X005770Y010752D01*
X005770Y010654D02*
X006247Y010654D01*
X006209Y010555D02*
X005770Y010555D01*
X005770Y010457D02*
X006209Y010457D01*
X006245Y010358D02*
X005770Y010358D01*
X005770Y010260D02*
X006331Y010260D01*
X006677Y010260D02*
X011238Y010260D01*
X011238Y010358D02*
X006763Y010358D01*
X006799Y010457D02*
X010784Y010457D01*
X010696Y010555D02*
X006799Y010555D01*
X006761Y010654D02*
X010659Y010654D01*
X010659Y010752D02*
X008668Y010752D01*
X008504Y011004D02*
X009304Y011004D01*
X009488Y011188D01*
X009488Y012654D01*
X009291Y012654D02*
X009291Y012041D01*
X009154Y011904D01*
X008888Y012034D02*
X006705Y012034D01*
X006705Y012132D02*
X008965Y012132D01*
X009121Y012231D02*
X006705Y012231D01*
X006705Y011935D02*
X008859Y011935D01*
X008863Y011836D02*
X006705Y011836D01*
X006705Y011738D02*
X008903Y011738D01*
X009022Y011639D02*
X006705Y011639D01*
X006705Y011541D02*
X009318Y011541D01*
X009318Y011639D02*
X009286Y011639D01*
X009318Y011442D02*
X006705Y011442D01*
X006705Y011344D02*
X009318Y011344D01*
X009305Y011245D02*
X008680Y011245D01*
X008328Y011245D02*
X006705Y011245D01*
X006705Y011147D02*
X008244Y011147D01*
X008209Y011048D02*
X006705Y011048D01*
X006705Y010950D02*
X008209Y010950D01*
X008248Y010851D02*
X006705Y010851D01*
X006705Y010752D02*
X008340Y010752D01*
X009391Y010851D02*
X010696Y010851D01*
X010782Y010950D02*
X009490Y010950D01*
X009588Y011048D02*
X011238Y011048D01*
X011238Y010950D02*
X011125Y010950D01*
X011238Y011147D02*
X009658Y011147D01*
X009658Y011245D02*
X011238Y011245D01*
X011238Y011344D02*
X009658Y011344D01*
X009658Y011442D02*
X011238Y011442D01*
X011238Y011541D02*
X011039Y011541D01*
X011155Y011639D02*
X011238Y011639D01*
X010966Y011866D02*
X010904Y011804D01*
X010966Y011866D02*
X011654Y011866D01*
X011654Y011669D02*
X012579Y011669D01*
X012697Y011787D01*
X012498Y011935D02*
X012069Y011935D01*
X012020Y012034D02*
X012498Y012034D01*
X012537Y012132D02*
X009658Y012132D01*
X009658Y012034D02*
X010716Y012034D01*
X010639Y011935D02*
X009658Y011935D01*
X009658Y011836D02*
X010609Y011836D01*
X010612Y011738D02*
X009658Y011738D01*
X009658Y011639D02*
X010653Y011639D01*
X010768Y011541D02*
X009658Y011541D01*
X009658Y012231D02*
X015237Y012231D01*
X015138Y012329D02*
X011055Y012329D01*
X011055Y012428D02*
X015040Y012428D01*
X015054Y012654D02*
X015554Y012154D01*
X015554Y011810D01*
X015531Y011787D01*
X015846Y011787D02*
X015846Y011061D01*
X015904Y011004D01*
X016164Y011147D02*
X019784Y011147D01*
X019784Y011245D02*
X016080Y011245D01*
X016016Y011344D02*
X019784Y011344D01*
X019784Y011442D02*
X019470Y011442D01*
X019510Y011541D02*
X019784Y011541D01*
X019784Y011639D02*
X019510Y011639D01*
X019510Y011738D02*
X019784Y011738D01*
X019784Y011836D02*
X019524Y011836D01*
X019524Y011935D02*
X019784Y011935D01*
X019784Y012034D02*
X019524Y012034D01*
X019524Y012132D02*
X019784Y012132D01*
X019784Y012231D02*
X019524Y012231D01*
X019524Y012329D02*
X019784Y012329D01*
X019784Y012428D02*
X019524Y012428D01*
X019524Y012526D02*
X019784Y012526D01*
X019784Y012625D02*
X019524Y012625D01*
X019524Y012723D02*
X019784Y012723D01*
X019784Y012822D02*
X019524Y012822D01*
X019524Y012920D02*
X019784Y012920D01*
X019784Y013019D02*
X019524Y013019D01*
X019524Y013117D02*
X019784Y013117D01*
X019784Y013216D02*
X019482Y013216D01*
X019384Y013315D02*
X019784Y013315D01*
X019784Y013413D02*
X019285Y013413D01*
X019187Y013512D02*
X019784Y013512D01*
X019784Y013610D02*
X019088Y013610D01*
X018989Y013709D02*
X019784Y013709D01*
X019784Y013807D02*
X018891Y013807D01*
X018792Y013906D02*
X019784Y013906D01*
X019784Y014004D02*
X018694Y014004D01*
X018595Y014103D02*
X019784Y014103D01*
X019784Y014201D02*
X018497Y014201D01*
X018398Y014300D02*
X019767Y014300D01*
X019669Y014399D02*
X018300Y014399D01*
X018201Y014497D02*
X019570Y014497D01*
X019472Y014596D02*
X018103Y014596D01*
X018004Y014694D02*
X019373Y014694D01*
X019275Y014793D02*
X017906Y014793D01*
X017807Y014891D02*
X019176Y014891D01*
X019078Y014990D02*
X017708Y014990D01*
X017610Y015088D02*
X018979Y015088D01*
X018881Y015187D02*
X017511Y015187D01*
X017413Y015285D02*
X018782Y015285D01*
X018683Y015384D02*
X017314Y015384D01*
X017204Y015254D02*
X019354Y013104D01*
X019354Y011830D01*
X019311Y011787D01*
X019004Y011795D02*
X018996Y011787D01*
X019004Y011795D02*
X019004Y013004D01*
X017004Y015004D01*
X009254Y015004D01*
X008904Y015354D01*
X008204Y015354D01*
X008004Y015154D01*
X008004Y013504D01*
X008307Y013201D01*
X008307Y012654D01*
X008504Y012654D02*
X008504Y013009D01*
X008504Y012654D01*
X008504Y012654D01*
X008504Y014060D01*
X008554Y014103D02*
X009213Y014103D01*
X009311Y014201D02*
X008839Y014201D01*
X008839Y014110D02*
X008839Y014294D01*
X008824Y014309D01*
X008829Y014315D01*
X008829Y014357D01*
X008829Y014519D01*
X008852Y014542D01*
X008854Y014537D01*
X008937Y014454D01*
X009045Y014409D01*
X009163Y014409D01*
X009271Y014454D01*
X009354Y014537D01*
X009399Y014645D01*
X009399Y014763D01*
X009369Y014834D01*
X009944Y014834D01*
X009884Y014774D01*
X008531Y013421D01*
X008531Y013280D01*
X008531Y013017D01*
X008522Y013009D01*
X008504Y013009D01*
X008486Y013009D01*
X008477Y013017D01*
X008477Y013130D01*
X008477Y013271D01*
X008174Y013574D01*
X008174Y013821D01*
X008231Y013764D01*
X008454Y013764D01*
X008454Y014010D01*
X008554Y014010D01*
X008554Y013764D01*
X008777Y013764D01*
X008839Y013827D01*
X008839Y014010D01*
X008554Y014010D01*
X008554Y014110D01*
X008839Y014110D01*
X008839Y014004D02*
X009114Y014004D01*
X009015Y013906D02*
X008839Y013906D01*
X008820Y013807D02*
X008917Y013807D01*
X008818Y013709D02*
X008174Y013709D01*
X008174Y013807D02*
X008188Y013807D01*
X008174Y013610D02*
X008720Y013610D01*
X008621Y013512D02*
X008237Y013512D01*
X008335Y013413D02*
X008531Y013413D01*
X008531Y013315D02*
X008434Y013315D01*
X008477Y013216D02*
X008531Y013216D01*
X008531Y013117D02*
X008477Y013117D01*
X008477Y013019D02*
X008531Y013019D01*
X008504Y012920D02*
X008504Y012920D01*
X008504Y012822D02*
X008504Y012822D01*
X008504Y012723D02*
X008504Y012723D01*
X008504Y012653D02*
X008504Y012298D01*
X008504Y012653D01*
X008504Y012653D01*
X008504Y012625D02*
X008504Y012625D01*
X008504Y012526D02*
X008504Y012526D01*
X008504Y012428D02*
X008504Y012428D01*
X008504Y012329D02*
X008504Y012329D01*
X008701Y012654D02*
X008701Y013351D01*
X010054Y014704D01*
X016854Y014704D01*
X018704Y012854D01*
X018704Y011810D01*
X018681Y011787D01*
X018366Y011787D02*
X018354Y011800D01*
X018354Y012804D01*
X016704Y014454D01*
X010204Y014454D01*
X008898Y013148D01*
X008898Y012654D01*
X009095Y012654D02*
X009095Y012995D01*
X010254Y014154D01*
X016504Y014154D01*
X018054Y012604D01*
X018054Y011790D01*
X018051Y011787D01*
X017454Y011820D02*
X017421Y011787D01*
X017454Y011820D02*
X017454Y012704D01*
X016304Y013854D01*
X010404Y013854D01*
X009882Y013332D01*
X009882Y012654D01*
X010276Y012654D02*
X010276Y013226D01*
X010654Y013604D01*
X016104Y013604D01*
X017104Y012604D01*
X017104Y011790D01*
X017106Y011787D01*
X016804Y011800D02*
X016791Y011787D01*
X016804Y011800D02*
X016804Y012504D01*
X015954Y013354D01*
X010654Y013354D01*
X010472Y013172D01*
X010472Y012654D01*
X010669Y012654D02*
X010669Y013069D01*
X010754Y013154D01*
X015754Y013154D01*
X016504Y012404D01*
X016504Y011815D01*
X016476Y011787D01*
X016278Y012091D02*
X016265Y012103D01*
X016162Y012103D01*
X016162Y011788D01*
X016161Y011788D01*
X016161Y012103D01*
X016058Y012103D01*
X016045Y012091D01*
X016045Y012093D01*
X015975Y012163D01*
X015724Y012163D01*
X015724Y012224D01*
X015624Y012324D01*
X015125Y012824D01*
X014984Y012824D01*
X011055Y012824D01*
X011055Y012984D01*
X015684Y012984D01*
X016334Y012334D01*
X016334Y012149D01*
X016278Y012093D01*
X016278Y012091D01*
X016317Y012132D02*
X016006Y012132D01*
X016161Y012034D02*
X016162Y012034D01*
X016161Y011935D02*
X016162Y011935D01*
X016161Y011836D02*
X016162Y011836D01*
X016161Y011738D02*
X016162Y011738D01*
X016161Y011639D02*
X016162Y011639D01*
X016161Y011541D02*
X016162Y011541D01*
X016016Y011442D02*
X016317Y011442D01*
X016199Y011048D02*
X019784Y011048D01*
X019784Y010950D02*
X016199Y010950D01*
X016160Y010851D02*
X019784Y010851D01*
X019784Y010752D02*
X016068Y010752D01*
X015740Y010752D02*
X015374Y010752D01*
X015374Y010851D02*
X015648Y010851D01*
X015609Y010950D02*
X015374Y010950D01*
X015374Y011048D02*
X015609Y011048D01*
X015644Y011147D02*
X015374Y011147D01*
X015374Y011245D02*
X015676Y011245D01*
X015676Y011344D02*
X015374Y011344D01*
X015204Y011775D02*
X015217Y011787D01*
X015204Y011775D02*
X015204Y010754D01*
X014151Y009701D01*
X011654Y009701D01*
X011654Y009898D02*
X013948Y009898D01*
X014904Y010854D01*
X014904Y011785D01*
X014902Y011787D01*
X014604Y011770D02*
X014587Y011787D01*
X014604Y011770D02*
X014604Y010904D01*
X013795Y010095D01*
X011654Y010095D01*
X011654Y010291D02*
X013641Y010291D01*
X014304Y010954D01*
X014304Y011755D01*
X014272Y011787D01*
X013957Y011787D02*
X013954Y011785D01*
X013954Y011004D01*
X013438Y010488D01*
X011654Y010488D01*
X011654Y010685D02*
X010973Y010685D01*
X010954Y010704D01*
X011124Y010457D02*
X011238Y010457D01*
X011238Y010161D02*
X005770Y010161D01*
X005770Y010063D02*
X011238Y010063D01*
X011238Y009964D02*
X005770Y009964D01*
X005770Y009866D02*
X011238Y009866D01*
X011238Y009767D02*
X005770Y009767D01*
X005354Y009701D02*
X004157Y009701D01*
X003704Y010154D01*
X003704Y010719D01*
X003419Y011004D01*
X002789Y011004D02*
X002789Y010789D01*
X002504Y010504D01*
X001504Y010504D01*
X001004Y011004D01*
X001504Y011504D02*
X001004Y012004D01*
X000767Y012329D02*
X000624Y012329D01*
X000624Y012231D02*
X000669Y012231D01*
X000624Y012186D02*
X000624Y012822D01*
X000839Y012606D01*
X001161Y012606D01*
X001434Y012334D01*
X001574Y012334D01*
X001857Y012334D01*
X001666Y012144D01*
X001666Y012033D01*
X001975Y012033D01*
X001975Y011975D01*
X001666Y011975D01*
X001666Y011864D01*
X001857Y011674D01*
X001574Y011674D01*
X001401Y011847D01*
X001401Y012169D01*
X001169Y012401D01*
X000839Y012401D01*
X000624Y012186D01*
X000624Y012428D02*
X001340Y012428D01*
X001241Y012526D02*
X000624Y012526D01*
X000624Y012625D02*
X000821Y012625D01*
X000722Y012723D02*
X000624Y012723D01*
X001004Y013004D02*
X001504Y012504D01*
X002504Y012504D01*
X002889Y012889D01*
X002889Y013004D01*
X003149Y012723D02*
X003259Y012723D01*
X003295Y012687D02*
X003204Y012779D01*
X003112Y012687D01*
X002927Y012687D01*
X002674Y012434D01*
X002674Y012434D01*
X002574Y012334D01*
X002151Y012334D01*
X002341Y012144D01*
X002341Y012033D01*
X002033Y012033D01*
X002033Y011975D01*
X002341Y011975D01*
X002341Y011864D01*
X002151Y011674D01*
X002434Y011674D01*
X002572Y011812D01*
X002572Y012227D01*
X002665Y012321D01*
X003112Y012321D01*
X003204Y012229D01*
X003295Y012321D01*
X003742Y012321D01*
X003836Y012227D01*
X003836Y011927D01*
X003934Y011829D01*
X003934Y012634D01*
X003811Y012756D01*
X003742Y012687D01*
X003295Y012687D01*
X003519Y013004D02*
X003804Y013004D01*
X004104Y012704D01*
X004104Y010504D01*
X004513Y010095D01*
X005354Y010095D01*
X005354Y009898D02*
X004310Y009898D01*
X003904Y010304D01*
X003904Y011619D01*
X003519Y012004D01*
X003836Y012034D02*
X003934Y012034D01*
X003934Y012132D02*
X003836Y012132D01*
X003833Y012231D02*
X003934Y012231D01*
X003934Y012329D02*
X002156Y012329D01*
X002254Y012231D02*
X002575Y012231D01*
X002572Y012132D02*
X002341Y012132D01*
X002341Y012034D02*
X002572Y012034D01*
X002572Y011935D02*
X002341Y011935D01*
X002314Y011836D02*
X002572Y011836D01*
X002498Y011738D02*
X002215Y011738D01*
X002504Y011504D02*
X001504Y011504D01*
X001510Y011738D02*
X001793Y011738D01*
X001694Y011836D02*
X001412Y011836D01*
X001401Y011935D02*
X001666Y011935D01*
X001666Y012034D02*
X001401Y012034D01*
X001401Y012132D02*
X001666Y012132D01*
X001753Y012231D02*
X001339Y012231D01*
X001241Y012329D02*
X001852Y012329D01*
X002668Y012428D02*
X003934Y012428D01*
X003934Y012526D02*
X002767Y012526D01*
X002865Y012625D02*
X003934Y012625D01*
X003844Y012723D02*
X003779Y012723D01*
X004304Y013204D02*
X003504Y014004D01*
X002519Y014004D01*
X001889Y014004D02*
X001004Y014004D01*
X001004Y015004D02*
X001889Y015004D01*
X002519Y015004D02*
X003554Y015004D01*
X004504Y014054D01*
X004504Y010804D01*
X004820Y010488D01*
X005354Y010488D01*
X005354Y010291D02*
X004567Y010291D01*
X004304Y010554D01*
X004304Y013204D01*
X005324Y012723D02*
X005506Y012723D01*
X005435Y012625D02*
X005324Y012625D01*
X005372Y012526D02*
X005409Y012526D01*
X005812Y013315D02*
X006365Y013315D01*
X006358Y013413D02*
X005899Y013413D01*
X005899Y013512D02*
X006358Y013512D01*
X006358Y013610D02*
X005899Y013610D01*
X005899Y013709D02*
X006358Y013709D01*
X006358Y013807D02*
X005899Y013807D01*
X005899Y013906D02*
X006358Y013906D01*
X006428Y014004D02*
X005829Y014004D01*
X005829Y014103D02*
X006428Y014103D01*
X006358Y014201D02*
X005899Y014201D01*
X005899Y014300D02*
X006358Y014300D01*
X006358Y014399D02*
X005899Y014399D01*
X005899Y014497D02*
X006358Y014497D01*
X006358Y014596D02*
X005899Y014596D01*
X005899Y014694D02*
X006358Y014694D01*
X006445Y014793D02*
X005813Y014793D01*
X005808Y014891D02*
X006499Y014891D01*
X006432Y014990D02*
X005876Y014990D01*
X005899Y015088D02*
X006409Y015088D01*
X006419Y015187D02*
X005889Y015187D01*
X005840Y015285D02*
X006468Y015285D01*
X006609Y015384D02*
X005699Y015384D01*
X005509Y015384D02*
X005074Y015384D01*
X005074Y015483D02*
X007742Y015483D01*
X007841Y015581D02*
X005074Y015581D01*
X005074Y015680D02*
X007939Y015680D01*
X008104Y015604D02*
X009204Y015604D01*
X009554Y015254D01*
X017204Y015254D01*
X017994Y016074D02*
X011974Y016074D01*
X011999Y015975D02*
X018092Y015975D01*
X018191Y015877D02*
X011991Y015877D01*
X011945Y015778D02*
X018289Y015778D01*
X018388Y015680D02*
X011812Y015680D01*
X011595Y015680D02*
X009369Y015680D01*
X009467Y015581D02*
X018486Y015581D01*
X018585Y015483D02*
X009566Y015483D01*
X009386Y014793D02*
X009902Y014793D01*
X009804Y014694D02*
X009399Y014694D01*
X009378Y014596D02*
X009705Y014596D01*
X009607Y014497D02*
X009314Y014497D01*
X009508Y014399D02*
X008829Y014399D01*
X008829Y014497D02*
X008894Y014497D01*
X008833Y014300D02*
X009410Y014300D01*
X009104Y014704D02*
X008960Y014848D01*
X008504Y014848D01*
X007804Y015304D02*
X008104Y015604D01*
X007804Y015304D02*
X007804Y013304D01*
X008110Y012998D01*
X008110Y012654D01*
X007750Y013117D02*
X006705Y013117D01*
X006705Y013216D02*
X007651Y013216D01*
X007634Y013315D02*
X007062Y013315D01*
X007149Y013413D02*
X007634Y013413D01*
X007634Y013512D02*
X007149Y013512D01*
X007149Y013610D02*
X007634Y013610D01*
X007634Y013709D02*
X007149Y013709D01*
X007149Y013807D02*
X007634Y013807D01*
X007634Y013906D02*
X007149Y013906D01*
X007079Y014004D02*
X007634Y014004D01*
X007634Y014103D02*
X007079Y014103D01*
X007149Y014201D02*
X007634Y014201D01*
X007634Y014300D02*
X007149Y014300D01*
X007149Y014399D02*
X007634Y014399D01*
X007634Y014497D02*
X007149Y014497D01*
X007149Y014596D02*
X007634Y014596D01*
X007634Y014694D02*
X007149Y014694D01*
X007063Y014793D02*
X007634Y014793D01*
X007634Y014891D02*
X006924Y014891D01*
X006976Y014990D02*
X007634Y014990D01*
X007634Y015088D02*
X006999Y015088D01*
X006989Y015187D02*
X007634Y015187D01*
X007634Y015285D02*
X006940Y015285D01*
X006799Y015384D02*
X007644Y015384D01*
X006754Y015054D02*
X006754Y014448D01*
X006754Y015054D02*
X006704Y015104D01*
X006497Y015778D02*
X005074Y015778D01*
X005074Y015877D02*
X006398Y015877D01*
X006300Y015975D02*
X005074Y015975D01*
X005074Y016074D02*
X006201Y016074D01*
X006570Y016271D02*
X017797Y016271D01*
X017895Y016172D02*
X011903Y016172D01*
X011505Y016172D02*
X006668Y016172D01*
X006471Y016369D02*
X017698Y016369D01*
X017599Y016468D02*
X006447Y016468D01*
X006406Y016566D02*
X017501Y016566D01*
X017402Y016665D02*
X006294Y016665D01*
X006014Y016665D02*
X005074Y016665D01*
X005074Y016566D02*
X005902Y016566D01*
X005861Y016468D02*
X005074Y016468D01*
X005074Y016369D02*
X005859Y016369D01*
X005890Y016271D02*
X005074Y016271D01*
X005074Y016172D02*
X005968Y016172D01*
X004985Y016764D02*
X009327Y016764D01*
X009243Y016862D02*
X004886Y016862D01*
X004788Y016961D02*
X009209Y016961D01*
X009209Y017059D02*
X004689Y017059D01*
X004590Y017158D02*
X009248Y017158D01*
X009504Y017004D02*
X017304Y017004D01*
X019954Y014354D01*
X019954Y003954D01*
X019614Y003854D02*
X017445Y003854D01*
X017346Y003756D02*
X019341Y003756D01*
X019248Y003657D02*
X017248Y003657D01*
X017149Y003559D02*
X019209Y003559D01*
X019209Y003460D02*
X017051Y003460D01*
X016952Y003362D02*
X019244Y003362D01*
X019328Y003263D02*
X016854Y003263D01*
X016755Y003165D02*
X020304Y003165D01*
X020304Y003263D02*
X019680Y003263D01*
X020304Y003066D02*
X016656Y003066D01*
X016558Y002968D02*
X020304Y002968D01*
X020304Y002869D02*
X016459Y002869D01*
X016391Y002179D02*
X016702Y002179D01*
X016666Y002081D02*
X016401Y002081D01*
X016504Y001504D02*
X015754Y001504D01*
X015204Y002054D01*
X007404Y002054D01*
X006554Y002904D01*
X006554Y005754D01*
X006732Y005932D01*
X006732Y006354D01*
X006339Y006354D02*
X006339Y002719D01*
X007254Y001804D01*
X014854Y001804D01*
X015654Y001004D01*
X016004Y001004D01*
X015004Y001004D02*
X014504Y001504D01*
X007504Y001504D01*
X007231Y001391D02*
X002631Y001391D01*
X002730Y001489D02*
X007209Y001489D01*
X007219Y001588D02*
X002828Y001588D01*
X002927Y001686D02*
X007131Y001686D01*
X007032Y001785D02*
X003836Y001785D01*
X003924Y001884D02*
X006934Y001884D01*
X007298Y001292D02*
X001278Y001292D01*
X001376Y001194D02*
X011606Y001194D01*
X011606Y001292D02*
X007709Y001292D01*
X005154Y003354D02*
X003804Y002004D01*
X003519Y002004D01*
X002889Y002004D02*
X002889Y001889D01*
X002504Y001504D01*
X001504Y001504D01*
X001004Y002004D01*
X000759Y001686D02*
X000624Y001686D01*
X000624Y001588D02*
X001180Y001588D01*
X001278Y001489D02*
X000624Y001489D01*
X000624Y001391D02*
X000829Y001391D01*
X000730Y001292D02*
X000624Y001292D01*
X000624Y001194D02*
X000632Y001194D01*
X001179Y001391D02*
X001377Y001391D01*
X001401Y001095D02*
X011606Y001095D01*
X011606Y000997D02*
X001401Y000997D01*
X001401Y000898D02*
X011606Y000898D01*
X011606Y000800D02*
X001362Y000800D01*
X001263Y000701D02*
X011606Y000701D01*
X009354Y003554D02*
X009454Y003654D01*
X016004Y003654D01*
X017262Y001785D02*
X017334Y001785D01*
X018504Y001504D02*
X018504Y002204D01*
X018473Y002475D02*
X020304Y002475D01*
X020304Y002573D02*
X018375Y002573D01*
X018276Y002672D02*
X020304Y002672D01*
X020304Y002770D02*
X018178Y002770D01*
X015873Y006614D02*
X013339Y006614D01*
X013054Y006614D02*
X012954Y006614D01*
X012954Y006515D02*
X013054Y006515D01*
X012954Y006417D02*
X012549Y006417D01*
X012549Y006515D02*
X012668Y006515D01*
X012668Y006614D02*
X012549Y006614D01*
X012493Y006712D02*
X015972Y006712D01*
X015738Y006909D02*
X015725Y006909D01*
X015531Y007220D02*
X015554Y007243D01*
X015554Y008154D01*
X014204Y009504D01*
X011654Y009504D01*
X012254Y008304D02*
X013404Y008304D01*
X013957Y007751D01*
X013957Y007220D01*
X013642Y007220D02*
X013642Y007716D01*
X013254Y008104D01*
X012304Y008104D01*
X012129Y007929D01*
X011654Y007929D01*
X011654Y007732D02*
X012282Y007732D01*
X012404Y007854D01*
X013154Y007854D01*
X013327Y007681D01*
X013327Y007220D01*
X013012Y007220D02*
X013012Y007596D01*
X012954Y007654D01*
X012554Y007654D01*
X012435Y007535D01*
X011654Y007535D01*
X011654Y007339D02*
X012579Y007339D01*
X012697Y007220D01*
X012504Y006909D02*
X011339Y006909D01*
X011653Y007106D02*
X011654Y007106D01*
X011654Y007142D02*
X012166Y007142D01*
X012154Y006398D02*
X011610Y006398D01*
X011554Y005654D02*
X011598Y005610D01*
X012154Y005610D01*
X012549Y005628D02*
X012608Y005628D01*
X012608Y005530D02*
X012549Y005530D01*
X012549Y005431D02*
X012608Y005431D01*
X012628Y005333D02*
X012530Y005333D01*
X012549Y005727D02*
X012608Y005727D01*
X012608Y005825D02*
X012549Y005825D01*
X012494Y005924D02*
X012664Y005924D01*
X012678Y006022D02*
X012479Y006022D01*
X012531Y006121D02*
X012678Y006121D01*
X012668Y006219D02*
X012549Y006219D01*
X012549Y006318D02*
X012668Y006318D01*
X013399Y005431D02*
X013542Y005431D01*
X016161Y007220D02*
X016161Y007996D01*
X016154Y008004D01*
X015462Y008486D02*
X019784Y008486D01*
X019784Y008584D02*
X015364Y008584D01*
X015265Y008683D02*
X019784Y008683D01*
X019784Y008782D02*
X015167Y008782D01*
X015068Y008880D02*
X019784Y008880D01*
X019784Y008979D02*
X014970Y008979D01*
X014871Y009077D02*
X019784Y009077D01*
X019784Y009176D02*
X014772Y009176D01*
X014674Y009274D02*
X019784Y009274D01*
X019784Y009373D02*
X014575Y009373D01*
X014477Y009471D02*
X019784Y009471D01*
X019784Y009570D02*
X014378Y009570D01*
X014359Y009668D02*
X019784Y009668D01*
X019784Y009767D02*
X014457Y009767D01*
X014556Y009866D02*
X019784Y009866D01*
X019784Y009964D02*
X014654Y009964D01*
X014753Y010063D02*
X019784Y010063D01*
X019784Y010161D02*
X014852Y010161D01*
X014950Y010260D02*
X019784Y010260D01*
X019784Y010358D02*
X015049Y010358D01*
X015147Y010457D02*
X019784Y010457D01*
X019784Y010555D02*
X015246Y010555D01*
X015344Y010654D02*
X019784Y010654D01*
X016334Y012231D02*
X015718Y012231D01*
X015619Y012329D02*
X016334Y012329D01*
X016240Y012428D02*
X015521Y012428D01*
X015422Y012526D02*
X016141Y012526D01*
X016043Y012625D02*
X015323Y012625D01*
X015225Y012723D02*
X015944Y012723D01*
X015846Y012822D02*
X015126Y012822D01*
X015054Y012654D02*
X010866Y012654D01*
X011055Y012920D02*
X015747Y012920D01*
X013654Y011775D02*
X013654Y011054D01*
X013482Y010882D01*
X011654Y010882D01*
X011654Y011079D02*
X013029Y011079D01*
X013304Y011354D01*
X013304Y011765D01*
X013327Y011787D01*
X013012Y011787D02*
X013004Y011780D01*
X013004Y011504D01*
X012776Y011276D01*
X011654Y011276D01*
X013642Y011787D02*
X013654Y011775D01*
X012254Y008304D02*
X012076Y008126D01*
X011654Y008126D01*
X010804Y008323D02*
X010685Y008323D01*
X010004Y009004D01*
X009886Y009274D02*
X005770Y009274D01*
X005770Y009176D02*
X009759Y009176D01*
X009715Y009077D02*
X005770Y009077D01*
X005770Y008979D02*
X009709Y008979D01*
X009736Y008880D02*
X005770Y008880D01*
X005770Y008782D02*
X009809Y008782D01*
X009766Y008683D02*
X005770Y008683D01*
X005770Y008584D02*
X009718Y008584D01*
X009709Y008486D02*
X005770Y008486D01*
X005770Y008387D02*
X009733Y008387D01*
X009802Y008289D02*
X005770Y008289D01*
X005770Y008190D02*
X005973Y008190D01*
X006154Y007954D02*
X006129Y007929D01*
X005354Y007929D01*
X005354Y007732D02*
X004982Y007732D01*
X004904Y007654D01*
X004904Y004054D01*
X003854Y003004D01*
X003519Y003004D01*
X002889Y003004D02*
X002889Y002889D01*
X002504Y002504D01*
X001504Y002504D01*
X001004Y003004D01*
X001504Y003504D02*
X001004Y004004D01*
X000687Y004249D02*
X000624Y004249D01*
X000624Y004186D02*
X000624Y004822D01*
X000839Y004606D01*
X001161Y004606D01*
X001434Y004334D01*
X001574Y004334D01*
X001857Y004334D01*
X001666Y004144D01*
X001666Y004033D01*
X001975Y004033D01*
X001975Y003975D01*
X001666Y003975D01*
X001666Y003864D01*
X001857Y003674D01*
X001574Y003674D01*
X001401Y003847D01*
X001401Y004169D01*
X001169Y004401D01*
X000839Y004401D01*
X000624Y004186D01*
X000624Y004347D02*
X000785Y004347D01*
X000624Y004446D02*
X001322Y004446D01*
X001223Y004544D02*
X000624Y004544D01*
X000624Y004643D02*
X000803Y004643D01*
X000704Y004741D02*
X000624Y004741D01*
X001004Y005004D02*
X001504Y004504D01*
X002504Y004504D01*
X002889Y004889D01*
X002889Y005004D01*
X002927Y004687D02*
X003112Y004687D01*
X003204Y004779D01*
X003295Y004687D01*
X003742Y004687D01*
X003836Y004780D01*
X003836Y005080D01*
X004524Y005769D01*
X004524Y005909D01*
X004524Y007934D01*
X004534Y007944D01*
X004534Y005259D01*
X003595Y004321D01*
X003295Y004321D01*
X003204Y004229D01*
X003112Y004321D01*
X002665Y004321D01*
X002572Y004227D01*
X002572Y003813D01*
X002434Y003674D01*
X002151Y003674D01*
X002341Y003864D01*
X002341Y003975D01*
X002033Y003975D01*
X002033Y004033D01*
X002341Y004033D01*
X002341Y004144D01*
X002151Y004334D01*
X002574Y004334D01*
X002674Y004434D01*
X002927Y004687D01*
X002883Y004643D02*
X003917Y004643D01*
X003819Y004544D02*
X002785Y004544D01*
X002686Y004446D02*
X003720Y004446D01*
X003622Y004347D02*
X002588Y004347D01*
X002593Y004249D02*
X002236Y004249D01*
X002335Y004150D02*
X002572Y004150D01*
X002572Y004051D02*
X002341Y004051D01*
X002341Y003953D02*
X002572Y003953D01*
X002572Y003854D02*
X002332Y003854D01*
X002233Y003756D02*
X002515Y003756D01*
X002504Y003504D02*
X001504Y003504D01*
X001492Y003756D02*
X001775Y003756D01*
X001676Y003854D02*
X001401Y003854D01*
X001401Y003953D02*
X001666Y003953D01*
X001666Y004051D02*
X001401Y004051D01*
X001401Y004150D02*
X001673Y004150D01*
X001771Y004249D02*
X001321Y004249D01*
X001223Y004347D02*
X001420Y004347D01*
X002504Y003504D02*
X002889Y003889D01*
X002889Y004004D01*
X003185Y004249D02*
X003223Y004249D01*
X003519Y004004D02*
X004704Y005189D01*
X004704Y008004D01*
X004826Y008126D01*
X005354Y008126D01*
X005354Y008520D02*
X004870Y008520D01*
X004354Y008004D01*
X004354Y005839D01*
X003519Y005004D01*
X003836Y005037D02*
X004311Y005037D01*
X004213Y004938D02*
X003836Y004938D01*
X003836Y004840D02*
X004114Y004840D01*
X004016Y004741D02*
X003797Y004741D01*
X003891Y005135D02*
X004410Y005135D01*
X004509Y005234D02*
X003989Y005234D01*
X004088Y005333D02*
X004534Y005333D01*
X004534Y005431D02*
X004186Y005431D01*
X004285Y005530D02*
X004534Y005530D01*
X004534Y005628D02*
X004384Y005628D01*
X004482Y005727D02*
X004534Y005727D01*
X004524Y005825D02*
X004534Y005825D01*
X004524Y005924D02*
X004534Y005924D01*
X004524Y006022D02*
X004534Y006022D01*
X004524Y006121D02*
X004534Y006121D01*
X004524Y006219D02*
X004534Y006219D01*
X004524Y006318D02*
X004534Y006318D01*
X004524Y006417D02*
X004534Y006417D01*
X004524Y006515D02*
X004534Y006515D01*
X004524Y006614D02*
X004534Y006614D01*
X004524Y006712D02*
X004534Y006712D01*
X004524Y006811D02*
X004534Y006811D01*
X004524Y006909D02*
X004534Y006909D01*
X004524Y007008D02*
X004534Y007008D01*
X004524Y007106D02*
X004534Y007106D01*
X004524Y007205D02*
X004534Y007205D01*
X004524Y007303D02*
X004534Y007303D01*
X004524Y007402D02*
X004534Y007402D01*
X004524Y007501D02*
X004534Y007501D01*
X004524Y007599D02*
X004534Y007599D01*
X004524Y007698D02*
X004534Y007698D01*
X004524Y007796D02*
X004534Y007796D01*
X004524Y007895D02*
X004534Y007895D01*
X004717Y008717D02*
X003004Y007004D01*
X003004Y006489D01*
X002519Y006004D01*
X001889Y006004D02*
X001004Y006004D01*
X001004Y007004D02*
X001889Y007004D01*
X002519Y007004D02*
X003504Y007989D01*
X003504Y008004D01*
X004413Y008913D01*
X005354Y008913D01*
X005354Y008717D02*
X004717Y008717D01*
X005354Y009110D02*
X003625Y009110D01*
X002519Y008004D01*
X001889Y008004D02*
X001004Y008004D01*
X001004Y009004D02*
X001889Y009004D01*
X001504Y009504D02*
X001004Y010004D01*
X001504Y009504D02*
X002504Y009504D01*
X002754Y009754D01*
X002789Y009754D01*
X002822Y009307D02*
X002519Y009004D01*
X002822Y009307D02*
X005354Y009307D01*
X005354Y009504D02*
X003669Y009504D01*
X003419Y009754D01*
X004704Y010954D02*
X004704Y015754D01*
X004454Y016004D01*
X002519Y016004D01*
X001889Y016004D02*
X001004Y016004D01*
X001004Y017004D02*
X001889Y017004D01*
X002177Y017256D02*
X002231Y017256D01*
X001601Y017256D02*
X001314Y017256D01*
X001195Y017355D02*
X020304Y017355D01*
X020304Y017453D02*
X000624Y017453D01*
X000624Y017355D02*
X000813Y017355D01*
X000694Y017256D02*
X000624Y017256D01*
X000624Y017158D02*
X000637Y017158D01*
X000624Y017552D02*
X020304Y017552D01*
X020304Y017650D02*
X001213Y017650D01*
X001311Y017749D02*
X020304Y017749D01*
X020304Y017848D02*
X001401Y017848D01*
X001401Y017946D02*
X020304Y017946D01*
X020304Y018045D02*
X001401Y018045D01*
X001401Y018143D02*
X020304Y018143D01*
X020304Y018242D02*
X001328Y018242D01*
X001230Y018340D02*
X020304Y018340D01*
X020304Y018439D02*
X000624Y018439D01*
X000624Y018340D02*
X000778Y018340D01*
X000680Y018242D02*
X000624Y018242D01*
X000624Y017749D02*
X000697Y017749D01*
X000624Y017650D02*
X000795Y017650D01*
X005074Y015285D02*
X005368Y015285D01*
X005319Y015187D02*
X005074Y015187D01*
X005074Y015088D02*
X005309Y015088D01*
X005332Y014990D02*
X005074Y014990D01*
X005074Y014891D02*
X005334Y014891D01*
X005195Y014793D02*
X005074Y014793D01*
X005074Y014694D02*
X005108Y014694D01*
X005108Y014596D02*
X005074Y014596D01*
X005074Y014497D02*
X005108Y014497D01*
X005108Y014399D02*
X005074Y014399D01*
X005074Y014300D02*
X005108Y014300D01*
X005108Y014201D02*
X005074Y014201D01*
X005074Y014103D02*
X005178Y014103D01*
X005504Y014448D02*
X005504Y015004D01*
X005604Y015104D01*
X006754Y013660D02*
X006535Y013442D01*
X006535Y012654D01*
X005354Y010882D02*
X004776Y010882D01*
X004704Y010954D01*
X003934Y011836D02*
X003927Y011836D01*
X003934Y011935D02*
X003836Y011935D01*
X003205Y012231D02*
X003203Y012231D01*
X002889Y012004D02*
X002889Y011889D01*
X002504Y011504D01*
X006335Y008190D02*
X009773Y008190D01*
X009721Y008092D02*
X006416Y008092D01*
X006449Y007993D02*
X009709Y007993D01*
X009685Y007895D02*
X006449Y007895D01*
X006408Y007796D02*
X009529Y007796D01*
X009473Y007698D02*
X006306Y007698D01*
X006099Y007599D02*
X009459Y007599D01*
X009477Y007501D02*
X006174Y007501D01*
X006174Y007402D02*
X009539Y007402D01*
X009286Y007303D02*
X007822Y007303D01*
X007881Y007205D02*
X009226Y007205D01*
X009209Y007106D02*
X007899Y007106D01*
X007883Y007008D02*
X009224Y007008D01*
X009281Y006909D02*
X007826Y006909D01*
X007667Y006811D02*
X009441Y006811D01*
X009685Y006923D02*
X009504Y007104D01*
X009685Y006923D02*
X009685Y006354D01*
X009882Y006354D02*
X009882Y007476D01*
X009754Y007604D01*
X010004Y008004D02*
X010276Y007732D01*
X010276Y006354D01*
X010472Y006354D02*
X010472Y008035D01*
X010004Y008504D01*
X008525Y006712D02*
X008483Y006712D01*
X008504Y006614D02*
X008504Y006614D01*
X008504Y006515D02*
X008504Y006515D01*
X008504Y006417D02*
X008504Y006417D01*
X008504Y006354D02*
X008504Y004798D01*
X008554Y004840D02*
X009028Y004840D01*
X009126Y004741D02*
X008839Y004741D01*
X008839Y004748D02*
X008554Y004748D01*
X008554Y004848D01*
X008454Y004848D01*
X008454Y005094D01*
X008231Y005094D01*
X008174Y005037D01*
X008174Y005037D01*
X008174Y005084D01*
X008477Y005387D01*
X008477Y005527D01*
X008477Y005990D01*
X008486Y005999D01*
X008504Y005999D01*
X008522Y005999D01*
X008531Y005990D01*
X008531Y005477D01*
X008531Y005337D01*
X008774Y005094D01*
X008554Y005094D01*
X008554Y004848D01*
X008839Y004848D01*
X008839Y005028D01*
X010044Y003824D01*
X009391Y003824D01*
X009404Y003837D01*
X009449Y003945D01*
X009449Y004063D01*
X009404Y004171D01*
X009321Y004254D01*
X009213Y004299D01*
X009095Y004299D01*
X008987Y004254D01*
X008913Y004180D01*
X008899Y004180D01*
X008899Y004268D01*
X008829Y004338D01*
X008829Y004543D01*
X008824Y004549D01*
X008839Y004564D01*
X008839Y004748D01*
X008839Y004643D02*
X009225Y004643D01*
X009323Y004544D02*
X008828Y004544D01*
X008829Y004446D02*
X009422Y004446D01*
X009520Y004347D02*
X008829Y004347D01*
X008899Y004249D02*
X008981Y004249D01*
X009148Y004010D02*
X009154Y004004D01*
X009148Y004010D02*
X008504Y004010D01*
X008054Y003554D02*
X009354Y003554D01*
X009411Y003854D02*
X010013Y003854D01*
X009915Y003953D02*
X009449Y003953D01*
X009449Y004051D02*
X009816Y004051D01*
X009717Y004150D02*
X009413Y004150D01*
X009326Y004249D02*
X009619Y004249D01*
X008929Y004938D02*
X008839Y004938D01*
X008732Y005135D02*
X008226Y005135D01*
X008324Y005234D02*
X008633Y005234D01*
X008535Y005333D02*
X008423Y005333D01*
X008477Y005431D02*
X008531Y005431D01*
X008531Y005530D02*
X008477Y005530D01*
X008477Y005628D02*
X008531Y005628D01*
X008531Y005727D02*
X008477Y005727D01*
X008477Y005825D02*
X008531Y005825D01*
X008531Y005924D02*
X008477Y005924D01*
X008504Y005999D02*
X008504Y006354D01*
X008504Y005999D01*
X008504Y006022D02*
X008504Y006022D01*
X008504Y006121D02*
X008504Y006121D01*
X008504Y006219D02*
X008504Y006219D01*
X008504Y006318D02*
X008504Y006318D01*
X008504Y006354D02*
X008504Y006354D01*
X008307Y006354D02*
X008307Y005457D01*
X008004Y005154D01*
X008004Y003604D01*
X008054Y003554D01*
X008454Y004938D02*
X008554Y004938D01*
X008554Y005037D02*
X008454Y005037D01*
X007541Y006811D02*
X007351Y006811D01*
X007386Y007303D02*
X006174Y007303D01*
X006004Y007454D02*
X006004Y006904D01*
X005154Y006054D01*
X005154Y003354D01*
X005869Y003953D02*
X006169Y003953D01*
X006169Y004051D02*
X005960Y004051D01*
X005999Y004150D02*
X006169Y004150D01*
X006169Y004249D02*
X005999Y004249D01*
X005964Y004347D02*
X006169Y004347D01*
X006169Y004446D02*
X005924Y004446D01*
X006142Y004544D02*
X006169Y004544D01*
X006169Y004643D02*
X006149Y004643D01*
X006149Y004741D02*
X006169Y004741D01*
X006169Y004840D02*
X006149Y004840D01*
X006149Y004938D02*
X006169Y004938D01*
X006169Y005037D02*
X006149Y005037D01*
X006169Y005135D02*
X006082Y005135D01*
X006079Y005234D02*
X006169Y005234D01*
X006169Y005333D02*
X006079Y005333D01*
X006089Y005431D02*
X006169Y005431D01*
X006169Y005530D02*
X006089Y005530D01*
X006089Y005648D02*
X005804Y005648D01*
X005804Y005894D01*
X006027Y005894D01*
X006089Y005831D01*
X006089Y005648D01*
X006089Y005727D02*
X006169Y005727D01*
X006169Y005825D02*
X006089Y005825D01*
X006169Y005628D02*
X005804Y005628D01*
X005804Y005727D02*
X005704Y005727D01*
X005704Y005825D02*
X005804Y005825D01*
X006141Y006417D02*
X006142Y006417D01*
X006141Y006515D02*
X006142Y006515D01*
X006141Y006614D02*
X006142Y006614D01*
X006004Y007454D02*
X005922Y007535D01*
X005354Y007535D01*
X006001Y007698D02*
X006002Y007698D01*
X005754Y004810D02*
X005754Y004254D01*
X005704Y004204D01*
X003241Y004741D02*
X003167Y004741D01*
X000661Y001785D02*
X000624Y001785D01*
X008454Y013807D02*
X008554Y013807D01*
X008554Y013906D02*
X008454Y013906D01*
X008454Y014004D02*
X008554Y014004D01*
X009681Y016764D02*
X017304Y016764D01*
X016476Y007220D02*
X016504Y007193D01*
M02*
