%
M48
M72
T01C0.0150
T02C0.0315
%
T01
X4504Y1504
X5704Y4204
X7504Y1504
X9154Y4004
X11554Y5654
X13654Y5704
X16154Y8004
X15904Y11004
X10954Y10704
X10904Y11804
X9154Y11904
X8504Y11004
X7504Y10504
X6504Y10504
X5704Y12504
X5504Y13004
X5604Y15104
X6704Y15104
X6154Y16404
X8904Y17404
X9504Y17004
X11704Y15954
X9104Y14704
X10954Y9354
X10004Y9004
X10004Y8504
X10004Y8004
X9754Y7604
X9504Y7104
X7604Y7104
X6154Y7954
X18304Y3004
X19504Y3504
T02
X1004Y1004
X1004Y2004
X2004Y2004
X2004Y3004
X2004Y4004
X2004Y5004
X1004Y5004
X1004Y4004
X1004Y3004
X1004Y6004
X1004Y7004
X1004Y8004
X1004Y9004
X1004Y10004
X1004Y11004
X2004Y11004
X2004Y10004
X2004Y12004
X2004Y13004
X1004Y13004
X1004Y14004
X1004Y15004
X1004Y16004
X1004Y17004
X1004Y18004
X1004Y12004
X12004Y1004
X13004Y1004
X14004Y1004
X15004Y1004
X16004Y1004
X16004Y2004
X17004Y2004
X18004Y2004
X19004Y2004
X19004Y1004
X18004Y1004
X17004Y1004
M30
