G75*
G70*
%OFA0B0*%
%FSLAX24Y24*%
%IPPOS*%
%LPD*%
%AMOC8*
5,1,8,0,0,1.08239X$1,22.5*
%
%ADD10C,0.0030*%
%ADD11C,0.0050*%
%ADD12C,0.0040*%
%ADD13C,0.0100*%
%ADD14C,0.0080*%
D10*
X003940Y001897D02*
X003989Y001849D01*
X004085Y001849D01*
X004134Y001897D01*
X004134Y001994D01*
X004037Y001994D01*
X003940Y002091D02*
X003940Y001897D01*
X003940Y002091D02*
X003989Y002139D01*
X004085Y002139D01*
X004134Y002091D01*
X004235Y002091D02*
X004235Y001897D01*
X004283Y001849D01*
X004380Y001849D01*
X004428Y001897D01*
X004530Y001849D02*
X004530Y002139D01*
X004428Y002091D02*
X004380Y002139D01*
X004283Y002139D01*
X004235Y002091D01*
X004530Y001946D02*
X004723Y002139D01*
X004824Y002091D02*
X004873Y002139D01*
X004969Y002139D01*
X005018Y002091D01*
X005018Y002042D01*
X004824Y001849D01*
X005018Y001849D01*
X004723Y001849D02*
X004578Y001994D01*
X004530Y002849D02*
X004530Y003139D01*
X004428Y003091D02*
X004380Y003139D01*
X004283Y003139D01*
X004235Y003091D01*
X004235Y002897D01*
X004283Y002849D01*
X004380Y002849D01*
X004428Y002897D01*
X004530Y002946D02*
X004723Y003139D01*
X004824Y003042D02*
X004921Y003139D01*
X004921Y002849D01*
X004824Y002849D02*
X005018Y002849D01*
X004723Y002849D02*
X004578Y002994D01*
X004134Y002994D02*
X004134Y002897D01*
X004085Y002849D01*
X003989Y002849D01*
X003940Y002897D01*
X003940Y003091D01*
X003989Y003139D01*
X004085Y003139D01*
X004134Y003091D01*
X004134Y002994D02*
X004037Y002994D01*
X004076Y003849D02*
X004076Y004139D01*
X003980Y004042D01*
X003980Y003849D02*
X004173Y003849D01*
X004274Y003994D02*
X004468Y003994D01*
X004419Y003849D02*
X004419Y004139D01*
X004274Y003994D01*
X004323Y004849D02*
X004274Y004897D01*
X004323Y004849D02*
X004419Y004849D01*
X004468Y004897D01*
X004468Y004946D01*
X004419Y004994D01*
X004371Y004994D01*
X004419Y004994D02*
X004468Y005042D01*
X004468Y005091D01*
X004419Y005139D01*
X004323Y005139D01*
X004274Y005091D01*
X004076Y005139D02*
X003980Y005042D01*
X004076Y005139D02*
X004076Y004849D01*
X003980Y004849D02*
X004173Y004849D01*
X003418Y005849D02*
X003224Y005849D01*
X003418Y006042D01*
X003418Y006091D01*
X003369Y006139D01*
X003273Y006139D01*
X003224Y006091D01*
X003026Y006139D02*
X003026Y005849D01*
X002930Y005849D02*
X003123Y005849D01*
X002930Y006042D02*
X003026Y006139D01*
X003026Y006849D02*
X003026Y007139D01*
X002930Y007042D01*
X002930Y006849D02*
X003123Y006849D01*
X003224Y006849D02*
X003418Y006849D01*
X003321Y006849D02*
X003321Y007139D01*
X003224Y007042D01*
X003273Y007849D02*
X003224Y007897D01*
X003418Y008091D01*
X003418Y007897D01*
X003369Y007849D01*
X003273Y007849D01*
X003224Y007897D02*
X003224Y008091D01*
X003273Y008139D01*
X003369Y008139D01*
X003418Y008091D01*
X003123Y007849D02*
X002930Y007849D01*
X003026Y007849D02*
X003026Y008139D01*
X002930Y008042D01*
X003123Y008849D02*
X003074Y008897D01*
X003123Y008849D02*
X003219Y008849D01*
X003268Y008897D01*
X003268Y009091D01*
X003219Y009139D01*
X003123Y009139D01*
X003074Y009091D01*
X003074Y009042D01*
X003123Y008994D01*
X003268Y008994D01*
X004123Y009849D02*
X004074Y009897D01*
X004074Y009946D01*
X004123Y009994D01*
X004219Y009994D01*
X004268Y009946D01*
X004268Y009897D01*
X004219Y009849D01*
X004123Y009849D01*
X004123Y009994D02*
X004074Y010042D01*
X004074Y010091D01*
X004123Y010139D01*
X004219Y010139D01*
X004268Y010091D01*
X004268Y010042D01*
X004219Y009994D01*
X004074Y010849D02*
X004074Y010897D01*
X004268Y011091D01*
X004268Y011139D01*
X004074Y011139D01*
X004123Y011849D02*
X004074Y011897D01*
X004074Y011994D01*
X004219Y011994D01*
X004268Y011946D01*
X004268Y011897D01*
X004219Y011849D01*
X004123Y011849D01*
X004074Y011994D02*
X004171Y012091D01*
X004268Y012139D01*
X004219Y012849D02*
X004123Y012849D01*
X004074Y012897D01*
X004074Y012994D02*
X004171Y013042D01*
X004219Y013042D01*
X004268Y012994D01*
X004268Y012897D01*
X004219Y012849D01*
X004074Y012994D02*
X004074Y013139D01*
X004268Y013139D01*
X003219Y013849D02*
X003219Y014139D01*
X003074Y013994D01*
X003268Y013994D01*
X003219Y014849D02*
X003123Y014849D01*
X003074Y014897D01*
X003171Y014994D02*
X003219Y014994D01*
X003268Y014946D01*
X003268Y014897D01*
X003219Y014849D01*
X003219Y014994D02*
X003268Y015042D01*
X003268Y015091D01*
X003219Y015139D01*
X003123Y015139D01*
X003074Y015091D01*
X003074Y015849D02*
X003268Y016042D01*
X003268Y016091D01*
X003219Y016139D01*
X003123Y016139D01*
X003074Y016091D01*
X003074Y015849D02*
X003268Y015849D01*
X003268Y016849D02*
X003074Y016849D01*
X003171Y016849D02*
X003171Y017139D01*
X003074Y017042D01*
X005719Y016262D02*
X005719Y016117D01*
X005767Y016069D01*
X005816Y016117D01*
X005864Y016069D01*
X005912Y016117D01*
X005912Y016262D01*
X006014Y016262D02*
X006014Y016117D01*
X006062Y016069D01*
X006110Y016117D01*
X006159Y016069D01*
X006207Y016117D01*
X006207Y016262D01*
X006308Y016262D02*
X006308Y016117D01*
X006357Y016069D01*
X006405Y016117D01*
X006453Y016069D01*
X006502Y016117D01*
X006502Y016262D01*
X006603Y016117D02*
X006603Y016069D01*
X006651Y016069D01*
X006651Y016117D01*
X006603Y016117D01*
X006750Y016117D02*
X006799Y016069D01*
X006895Y016069D01*
X006944Y016117D01*
X006944Y016214D01*
X006847Y016214D01*
X006944Y016311D02*
X006895Y016359D01*
X006799Y016359D01*
X006750Y016311D01*
X006750Y016117D01*
X007045Y016117D02*
X007093Y016069D01*
X007238Y016069D01*
X007238Y016214D01*
X007190Y016262D01*
X007093Y016262D01*
X007093Y016166D02*
X007238Y016166D01*
X007339Y016214D02*
X007388Y016262D01*
X007533Y016262D01*
X007533Y016359D02*
X007533Y016069D01*
X007388Y016069D01*
X007339Y016117D01*
X007339Y016214D01*
X007093Y016166D02*
X007045Y016117D01*
X007191Y015908D02*
X007191Y015859D01*
X007191Y015762D02*
X007191Y015569D01*
X007143Y015569D02*
X007240Y015569D01*
X007339Y015617D02*
X007388Y015569D01*
X007533Y015569D01*
X007533Y015521D02*
X007533Y015762D01*
X007388Y015762D01*
X007339Y015714D01*
X007339Y015617D01*
X007436Y015472D02*
X007485Y015472D01*
X007533Y015521D01*
X007634Y015569D02*
X007634Y015859D01*
X007682Y015762D02*
X007779Y015762D01*
X007828Y015714D01*
X007828Y015569D01*
X007977Y015617D02*
X008025Y015569D01*
X007977Y015617D02*
X007977Y015811D01*
X007929Y015762D02*
X008025Y015762D01*
X007977Y016069D02*
X007929Y016117D01*
X007929Y016214D01*
X007977Y016262D01*
X008074Y016262D01*
X008122Y016214D01*
X008122Y016166D01*
X007929Y016166D01*
X007977Y016069D02*
X008074Y016069D01*
X008272Y016117D02*
X008320Y016069D01*
X008272Y016117D02*
X008272Y016311D01*
X008320Y016262D02*
X008223Y016262D01*
X008420Y016214D02*
X008517Y016214D01*
X008613Y016359D02*
X008420Y016359D01*
X008420Y016069D01*
X008468Y015859D02*
X008420Y015811D01*
X008468Y015859D02*
X008565Y015859D01*
X008613Y015811D01*
X008613Y015762D01*
X008420Y015569D01*
X008613Y015569D01*
X008714Y015617D02*
X008714Y015811D01*
X008763Y015859D01*
X008860Y015859D01*
X008908Y015811D01*
X008714Y015617D01*
X008763Y015569D01*
X008860Y015569D01*
X008908Y015617D01*
X008908Y015811D01*
X009009Y015762D02*
X009106Y015859D01*
X009106Y015569D01*
X009009Y015569D02*
X009203Y015569D01*
X009304Y015569D02*
X009497Y015569D01*
X009400Y015569D02*
X009400Y015859D01*
X009304Y015762D01*
X009401Y016069D02*
X009352Y016117D01*
X009352Y016311D01*
X009304Y016262D02*
X009401Y016262D01*
X009500Y016214D02*
X009500Y016117D01*
X009549Y016069D01*
X009645Y016069D01*
X009694Y016117D01*
X009694Y016214D01*
X009645Y016262D01*
X009549Y016262D01*
X009500Y016214D01*
X009795Y016262D02*
X009795Y016069D01*
X009795Y016166D02*
X009892Y016262D01*
X009940Y016262D01*
X010040Y016262D02*
X010040Y016117D01*
X010089Y016069D01*
X010234Y016069D01*
X010234Y016021D02*
X010185Y015972D01*
X010137Y015972D01*
X010234Y016021D02*
X010234Y016262D01*
X010335Y016117D02*
X010335Y016069D01*
X010383Y016069D01*
X010383Y016117D01*
X010335Y016117D01*
X010482Y016069D02*
X010482Y016262D01*
X010627Y016262D01*
X010676Y016214D01*
X010676Y016069D01*
X010777Y016117D02*
X010777Y016214D01*
X010825Y016262D01*
X010922Y016262D01*
X010970Y016214D01*
X010970Y016166D01*
X010777Y016166D01*
X010777Y016117D02*
X010825Y016069D01*
X010922Y016069D01*
X011120Y016117D02*
X011168Y016069D01*
X011120Y016117D02*
X011120Y016311D01*
X011072Y016262D02*
X011168Y016262D01*
X011120Y015762D02*
X011072Y015714D01*
X011072Y015617D01*
X011120Y015569D01*
X011217Y015569D01*
X011265Y015666D02*
X011072Y015666D01*
X011120Y015762D02*
X011217Y015762D01*
X011265Y015714D01*
X011265Y015666D01*
X011366Y015762D02*
X011463Y015762D01*
X011415Y015811D02*
X011415Y015617D01*
X011463Y015569D01*
X011857Y015569D02*
X011857Y015859D01*
X012051Y015859D01*
X011954Y015714D02*
X011857Y015714D01*
X012152Y015617D02*
X012200Y015666D01*
X012345Y015666D01*
X012345Y015714D02*
X012345Y015569D01*
X012200Y015569D01*
X012152Y015617D01*
X012200Y015762D02*
X012297Y015762D01*
X012345Y015714D01*
X012447Y015714D02*
X012447Y015617D01*
X012495Y015569D01*
X012640Y015569D01*
X012790Y015617D02*
X012790Y015811D01*
X012838Y015762D02*
X012741Y015762D01*
X012640Y015762D02*
X012495Y015762D01*
X012447Y015714D01*
X012790Y015617D02*
X012838Y015569D01*
X012938Y015617D02*
X012986Y015569D01*
X013083Y015569D01*
X013131Y015617D01*
X013131Y015714D01*
X013083Y015762D01*
X012986Y015762D01*
X012938Y015714D01*
X012938Y015617D01*
X013232Y015569D02*
X013232Y015762D01*
X013232Y015666D02*
X013329Y015762D01*
X013377Y015762D01*
X013478Y015762D02*
X013478Y015617D01*
X013526Y015569D01*
X013671Y015569D01*
X013671Y015521D02*
X013623Y015472D01*
X013575Y015472D01*
X013671Y015521D02*
X013671Y015762D01*
X013821Y015617D02*
X013821Y015569D01*
X013869Y015569D01*
X013869Y015617D01*
X013821Y015617D01*
X013869Y015569D02*
X013772Y015472D01*
X014264Y015569D02*
X014457Y015569D01*
X014558Y015569D02*
X014752Y015569D01*
X014853Y015617D02*
X014853Y015811D01*
X014901Y015859D01*
X014998Y015859D01*
X015046Y015811D01*
X015046Y015617D02*
X014998Y015569D01*
X014901Y015569D01*
X014853Y015617D01*
X014558Y015569D02*
X014558Y015859D01*
X014264Y015859D02*
X014264Y015569D01*
X010970Y015569D02*
X010825Y015569D01*
X010777Y015617D01*
X010777Y015714D01*
X010825Y015762D01*
X010970Y015762D01*
X010970Y015521D01*
X010922Y015472D01*
X010874Y015472D01*
X010676Y015569D02*
X010531Y015569D01*
X010482Y015617D01*
X010482Y015714D01*
X010531Y015762D01*
X010676Y015762D01*
X010676Y015859D02*
X010676Y015569D01*
X010381Y015569D02*
X010381Y015714D01*
X010333Y015762D01*
X010236Y015762D01*
X010236Y015666D02*
X010381Y015666D01*
X010381Y015569D02*
X010236Y015569D01*
X010188Y015617D01*
X010236Y015666D01*
X010086Y015714D02*
X009990Y015714D01*
X010086Y015714D02*
X010086Y015617D01*
X010038Y015569D01*
X009941Y015569D01*
X009893Y015617D01*
X009893Y015811D01*
X009941Y015859D01*
X010038Y015859D01*
X010086Y015811D01*
X009203Y016069D02*
X009057Y016069D01*
X009009Y016117D01*
X009009Y016214D01*
X009057Y016262D01*
X009203Y016262D01*
X008908Y016214D02*
X008908Y016069D01*
X008763Y016069D01*
X008714Y016117D01*
X008763Y016166D01*
X008908Y016166D01*
X008908Y016214D02*
X008860Y016262D01*
X008763Y016262D01*
X008764Y016569D02*
X008715Y016569D01*
X008715Y016617D01*
X008764Y016617D01*
X008764Y016569D01*
X008863Y016617D02*
X009056Y016811D01*
X009056Y016617D01*
X009008Y016569D01*
X008911Y016569D01*
X008863Y016617D01*
X008863Y016811D01*
X008911Y016859D01*
X009008Y016859D01*
X009056Y016811D01*
X008614Y016569D02*
X008421Y016569D01*
X008517Y016569D02*
X008517Y016859D01*
X008421Y016762D01*
X008320Y016666D02*
X008320Y016859D01*
X008419Y016972D02*
X008468Y016972D01*
X008516Y017021D01*
X008516Y017262D01*
X008371Y017262D01*
X008323Y017214D01*
X008323Y017117D01*
X008371Y017069D01*
X008516Y017069D01*
X008221Y017069D02*
X008221Y017214D01*
X008173Y017262D01*
X008028Y017262D01*
X008028Y017069D01*
X007928Y017069D02*
X007831Y017069D01*
X007880Y017069D02*
X007880Y017262D01*
X007831Y017262D01*
X007880Y017359D02*
X007880Y017408D01*
X007730Y017359D02*
X007730Y017069D01*
X007634Y017166D01*
X007537Y017069D01*
X007537Y017359D01*
X007141Y017359D02*
X007141Y017069D01*
X006948Y017069D02*
X006948Y017359D01*
X007044Y017262D01*
X007141Y017359D01*
X006846Y017262D02*
X006846Y017069D01*
X006846Y017214D02*
X006653Y017214D01*
X006653Y017262D02*
X006750Y017359D01*
X006846Y017262D01*
X006653Y017262D02*
X006653Y017069D01*
X006552Y017069D02*
X006455Y017166D01*
X006503Y017166D02*
X006358Y017166D01*
X006358Y017069D02*
X006358Y017359D01*
X006503Y017359D01*
X006552Y017311D01*
X006552Y017214D01*
X006503Y017166D01*
X006552Y016859D02*
X006552Y016569D01*
X006455Y016666D01*
X006358Y016569D01*
X006358Y016859D01*
X006257Y016811D02*
X006209Y016859D01*
X006064Y016859D01*
X006064Y016569D01*
X006064Y016666D02*
X006209Y016666D01*
X006257Y016714D01*
X006257Y016811D01*
X005962Y016811D02*
X005962Y016762D01*
X005914Y016714D01*
X005769Y016714D01*
X005914Y016714D02*
X005962Y016666D01*
X005962Y016617D01*
X005914Y016569D01*
X005769Y016569D01*
X005769Y016859D01*
X005914Y016859D01*
X005962Y016811D01*
X005914Y017069D02*
X005962Y017117D01*
X005914Y017069D02*
X005817Y017069D01*
X005769Y017117D01*
X005769Y017311D01*
X005817Y017359D01*
X005914Y017359D01*
X005962Y017311D01*
X006064Y017069D02*
X006257Y017359D01*
X006653Y016859D02*
X006653Y016714D01*
X006750Y016762D01*
X006798Y016762D01*
X006846Y016714D01*
X006846Y016617D01*
X006798Y016569D01*
X006701Y016569D01*
X006653Y016617D01*
X006948Y016617D02*
X006948Y016811D01*
X006996Y016859D01*
X007093Y016859D01*
X007141Y016811D01*
X006948Y016617D01*
X006996Y016569D01*
X007093Y016569D01*
X007141Y016617D01*
X007141Y016811D01*
X007242Y016811D02*
X007291Y016859D01*
X007387Y016859D01*
X007436Y016811D01*
X007436Y016762D01*
X007242Y016569D01*
X007436Y016569D01*
X007537Y016617D02*
X007585Y016569D01*
X007682Y016569D01*
X007730Y016617D01*
X007730Y016714D01*
X007682Y016762D01*
X007634Y016762D01*
X007537Y016714D01*
X007537Y016859D01*
X007730Y016859D01*
X008126Y016859D02*
X008126Y016666D01*
X008223Y016569D01*
X008320Y016666D01*
X007828Y016262D02*
X007682Y016262D01*
X007634Y016214D01*
X007634Y016117D01*
X007682Y016069D01*
X007828Y016069D01*
X007828Y016021D02*
X007828Y016262D01*
X007828Y016021D02*
X007779Y015972D01*
X007731Y015972D01*
X007682Y015762D02*
X007634Y015714D01*
X007191Y015762D02*
X007143Y015762D01*
X007043Y015762D02*
X006994Y015762D01*
X006898Y015666D01*
X006898Y015762D02*
X006898Y015569D01*
X006796Y015569D02*
X006651Y015569D01*
X006603Y015617D01*
X006603Y015762D01*
X006502Y015714D02*
X006502Y015617D01*
X006453Y015569D01*
X006308Y015569D01*
X006308Y015472D02*
X006308Y015762D01*
X006453Y015762D01*
X006502Y015714D01*
X006207Y015714D02*
X006207Y015617D01*
X006159Y015569D01*
X006062Y015569D01*
X006014Y015617D01*
X006014Y015714D01*
X006062Y015762D01*
X006159Y015762D01*
X006207Y015714D01*
X005912Y015617D02*
X005864Y015569D01*
X005767Y015569D01*
X005719Y015617D01*
X005719Y015811D01*
X005767Y015859D01*
X005864Y015859D01*
X005912Y015811D01*
X006700Y015472D02*
X006748Y015472D01*
X006796Y015521D01*
X006796Y015762D01*
X006846Y016859D02*
X006653Y016859D01*
X015897Y003746D02*
X015945Y003746D01*
X015994Y003698D01*
X016042Y003746D01*
X016091Y003746D01*
X016139Y003698D01*
X016139Y003601D01*
X016091Y003553D01*
X016139Y003452D02*
X015994Y003307D01*
X016042Y003258D02*
X015849Y003452D01*
X015897Y003553D02*
X015849Y003601D01*
X015849Y003698D01*
X015897Y003746D01*
X015994Y003698D02*
X015994Y003650D01*
X015849Y003258D02*
X016139Y003258D01*
X016091Y003157D02*
X016139Y003109D01*
X016139Y003012D01*
X016091Y002964D01*
X015897Y002964D01*
X015849Y003012D01*
X015849Y003109D01*
X015897Y003157D01*
X015897Y002862D02*
X015849Y002814D01*
X015849Y002717D01*
X015897Y002669D01*
X016091Y002669D01*
X016139Y002717D01*
X016139Y002814D01*
X016091Y002862D01*
X015994Y002862D01*
X015994Y002766D01*
X015322Y003007D02*
X015322Y003316D01*
X015136Y003316D01*
X015075Y003254D01*
X015075Y003131D01*
X015136Y003069D01*
X015322Y003069D01*
X015322Y003007D02*
X015260Y002946D01*
X015198Y002946D01*
X014953Y003069D02*
X014953Y003254D01*
X014892Y003316D01*
X014706Y003316D01*
X014706Y003069D01*
X014584Y003069D02*
X014461Y003069D01*
X014523Y003069D02*
X014523Y003316D01*
X014461Y003316D01*
X014523Y003439D02*
X014523Y003501D01*
X014339Y003439D02*
X014339Y003069D01*
X014216Y003192D01*
X014093Y003069D01*
X014093Y003439D01*
X013603Y003254D02*
X013603Y003069D01*
X013479Y003069D02*
X013479Y003254D01*
X013541Y003316D01*
X013603Y003254D01*
X013479Y003254D02*
X013418Y003316D01*
X013356Y003316D01*
X013356Y003069D01*
X013234Y003069D02*
X013049Y003069D01*
X012988Y003131D01*
X013049Y003192D01*
X013234Y003192D01*
X013234Y003254D02*
X013234Y003069D01*
X013234Y003254D02*
X013173Y003316D01*
X013049Y003316D01*
X012866Y003316D02*
X012804Y003316D01*
X012681Y003192D01*
X012681Y003069D02*
X012681Y003316D01*
X012559Y003316D02*
X012559Y003007D01*
X012498Y002946D01*
X012436Y002946D01*
X012374Y003069D02*
X012312Y003131D01*
X012312Y003254D01*
X012374Y003316D01*
X012559Y003316D01*
X012559Y003069D02*
X012374Y003069D01*
X012191Y003131D02*
X012191Y003254D01*
X012129Y003316D01*
X012006Y003316D01*
X011944Y003254D01*
X011944Y003131D01*
X012006Y003069D01*
X012129Y003069D01*
X012191Y003131D01*
X011822Y003316D02*
X011761Y003316D01*
X011637Y003192D01*
X011637Y003069D02*
X011637Y003316D01*
X011516Y003378D02*
X011516Y003254D01*
X011454Y003192D01*
X011269Y003192D01*
X011269Y003069D02*
X011269Y003439D01*
X011454Y003439D01*
X011516Y003378D01*
X011849Y002452D02*
X012042Y002258D01*
X011994Y002307D02*
X012139Y002452D01*
X012139Y002258D02*
X011849Y002258D01*
X011897Y002157D02*
X011849Y002109D01*
X011849Y002012D01*
X011897Y001964D01*
X012091Y001964D01*
X012139Y002012D01*
X012139Y002109D01*
X012091Y002157D01*
X011849Y001862D02*
X011849Y001669D01*
X011849Y001766D02*
X012139Y001766D01*
X012849Y001766D02*
X013139Y001766D01*
X013139Y001964D02*
X012849Y001964D01*
X012849Y002109D01*
X012897Y002157D01*
X013091Y002157D01*
X013139Y002109D01*
X013139Y001964D01*
X012849Y001862D02*
X012849Y001669D01*
X012849Y002258D02*
X012849Y002355D01*
X012849Y002307D02*
X013139Y002307D01*
X013139Y002355D02*
X013139Y002258D01*
X013849Y002307D02*
X013897Y002258D01*
X014091Y002258D01*
X014139Y002307D01*
X014139Y002403D01*
X014091Y002452D01*
X013897Y002452D01*
X013849Y002403D01*
X013849Y002307D01*
X013897Y002157D02*
X013849Y002109D01*
X013849Y001964D01*
X014139Y001964D01*
X014139Y002109D01*
X014091Y002157D01*
X013897Y002157D01*
X013849Y001862D02*
X013849Y001669D01*
X013849Y001766D02*
X014139Y001766D01*
X014849Y001766D02*
X015139Y001766D01*
X015139Y001964D02*
X014849Y001964D01*
X014945Y002060D01*
X014849Y002157D01*
X015139Y002157D01*
X015091Y002258D02*
X015139Y002307D01*
X015139Y002403D01*
X015091Y002452D01*
X015042Y002452D01*
X014994Y002403D01*
X014994Y002307D01*
X014945Y002258D01*
X014897Y002258D01*
X014849Y002307D01*
X014849Y002403D01*
X014897Y002452D01*
X014849Y001862D02*
X014849Y001669D01*
D11*
X001254Y000504D02*
X000504Y000504D01*
X000504Y000554D02*
X000504Y001454D01*
X000534Y001494D02*
X001284Y001494D01*
X001254Y001504D02*
X001504Y001254D01*
X001504Y000754D01*
X001254Y000504D01*
X001759Y000599D02*
X001804Y000554D01*
X001984Y000554D01*
X002029Y000599D01*
X002029Y000689D01*
X001984Y000734D01*
X001894Y000734D01*
X001894Y000644D01*
X001804Y000734D02*
X001759Y000689D01*
X001759Y000599D01*
X001759Y000849D02*
X002029Y001029D01*
X001759Y001029D01*
X001759Y001143D02*
X001759Y001278D01*
X001804Y001323D01*
X001984Y001323D01*
X002029Y001278D01*
X002029Y001143D01*
X001759Y001143D01*
X001759Y000849D02*
X002029Y000849D01*
X002254Y001504D02*
X002504Y001754D01*
X002504Y002254D01*
X002254Y002504D01*
X002504Y002754D01*
X002504Y003254D01*
X002254Y003504D01*
X001304Y003504D01*
X001254Y003504D02*
X000504Y003504D01*
X000504Y004504D01*
X001254Y004504D01*
X001304Y004504D02*
X002254Y004504D01*
X002504Y004754D01*
X002504Y005254D01*
X002254Y005504D01*
X000504Y005504D01*
X000504Y006504D01*
X001244Y006504D01*
X001254Y006504D02*
X001504Y006754D01*
X001504Y007254D01*
X001254Y007504D01*
X001504Y007754D01*
X001504Y008254D01*
X001254Y008504D01*
X001504Y008754D01*
X001504Y009254D01*
X001254Y009504D01*
X001504Y009554D02*
X001504Y013454D01*
X001329Y013504D02*
X002279Y013504D01*
X002229Y013529D02*
X002479Y013279D01*
X002504Y013254D02*
X002504Y012754D01*
X002254Y012504D01*
X002504Y012254D01*
X002504Y011754D01*
X002254Y011504D01*
X002504Y011254D01*
X002504Y010754D01*
X002254Y010504D01*
X002504Y010254D01*
X002504Y009754D01*
X002254Y009504D01*
X002279Y009504D02*
X000529Y009504D01*
X000504Y008504D02*
X001244Y008504D01*
X001613Y008728D02*
X001613Y009280D01*
X002086Y009280D01*
X002322Y009280D02*
X002794Y009280D01*
X002794Y008728D01*
X002322Y008728D01*
X002086Y008728D02*
X001613Y008728D01*
X001613Y008280D02*
X001613Y007728D01*
X002086Y007728D01*
X002322Y007728D02*
X002794Y007728D01*
X002794Y008280D01*
X002322Y008280D01*
X002086Y008280D02*
X001613Y008280D01*
X001244Y007504D02*
X000504Y007504D01*
X000504Y008504D01*
X000504Y017504D01*
X000504Y017554D02*
X000504Y018454D01*
X000534Y018494D02*
X001284Y018494D01*
X001254Y018504D02*
X001504Y018254D01*
X001504Y017754D01*
X001254Y017504D01*
X001504Y017254D01*
X001504Y016754D01*
X001254Y016504D01*
X001504Y016254D01*
X001504Y015754D01*
X001254Y015504D01*
X001504Y015254D01*
X001504Y014754D01*
X001254Y014504D01*
X001504Y014254D01*
X001504Y013754D01*
X001254Y013504D01*
X001279Y013504D02*
X000529Y013504D01*
X000529Y014504D02*
X001279Y014504D01*
X001613Y014728D02*
X001613Y015280D01*
X002086Y015280D01*
X002322Y015280D02*
X002794Y015280D01*
X002794Y014728D01*
X002322Y014728D01*
X002086Y014728D02*
X001613Y014728D01*
X001613Y014280D02*
X001613Y013728D01*
X002086Y013728D01*
X002322Y013728D02*
X002794Y013728D01*
X002794Y014280D01*
X002322Y014280D01*
X002086Y014280D02*
X001613Y014280D01*
X001279Y015504D02*
X000529Y015504D01*
X001613Y015728D02*
X001613Y016280D01*
X002086Y016280D01*
X002322Y016280D02*
X002794Y016280D01*
X002794Y015728D01*
X002322Y015728D01*
X002086Y015728D02*
X001613Y015728D01*
X001279Y016504D02*
X000529Y016504D01*
X000554Y017504D02*
X001304Y017504D01*
X001613Y017280D02*
X001613Y016728D01*
X002086Y016728D01*
X002322Y016728D02*
X002794Y016728D01*
X002794Y017280D01*
X002322Y017280D01*
X002086Y017280D02*
X001613Y017280D01*
X001804Y017554D02*
X001984Y017554D01*
X002029Y017599D01*
X002029Y017689D01*
X001984Y017734D01*
X001894Y017734D01*
X001894Y017644D01*
X001804Y017734D02*
X001759Y017689D01*
X001759Y017599D01*
X001804Y017554D01*
X001759Y017849D02*
X002029Y018029D01*
X001759Y018029D01*
X001759Y018143D02*
X001759Y018278D01*
X001804Y018323D01*
X001984Y018323D01*
X002029Y018278D01*
X002029Y018143D01*
X001759Y018143D01*
X001759Y017849D02*
X002029Y017849D01*
X003954Y017104D02*
X004004Y017079D01*
X003954Y017104D02*
X003935Y017115D01*
X003918Y017129D01*
X003903Y017145D01*
X003892Y017164D01*
X003884Y017185D01*
X003880Y017207D01*
X003879Y017229D01*
X003883Y017260D01*
X003891Y017291D01*
X003901Y017320D01*
X003916Y017348D01*
X003933Y017374D01*
X003953Y017398D01*
X003976Y017420D01*
X004002Y017438D01*
X004029Y017454D01*
X004504Y017679D02*
X004498Y017705D01*
X004490Y017730D01*
X004479Y017754D01*
X004604Y017804D02*
X004629Y017704D01*
X004529Y017629D02*
X004518Y017644D01*
X004510Y017661D01*
X004504Y017679D01*
X004578Y017553D02*
X004585Y017543D01*
X004593Y017535D01*
X004603Y017528D01*
X004604Y017529D02*
X004654Y017479D01*
X004779Y017454D02*
X004777Y017434D01*
X004773Y017414D01*
X004765Y017396D01*
X004754Y017379D01*
X004779Y017354D02*
X004954Y017129D01*
X004929Y017179D02*
X004804Y017354D01*
X004829Y017354D02*
X004879Y017279D01*
X004754Y017279D02*
X004679Y017354D01*
X004654Y017379D01*
X004604Y017404D02*
X004554Y017429D01*
X004404Y017479D01*
X004579Y017554D02*
X004565Y017581D01*
X004548Y017606D01*
X004529Y017629D01*
X004654Y017479D02*
X004665Y017470D01*
X004677Y017462D01*
X004690Y017457D01*
X004704Y017454D01*
X004704Y017479D01*
X004729Y017529D01*
X004754Y017529D01*
X004762Y017528D01*
X004769Y017524D01*
X004774Y017519D01*
X004778Y017512D01*
X004779Y017504D01*
X004779Y017454D01*
X004804Y017379D02*
X004817Y017381D01*
X004829Y017386D01*
X004839Y017394D01*
X004847Y017404D01*
X004852Y017416D01*
X004854Y017429D01*
X004854Y017454D01*
X004854Y017429D02*
X004854Y017404D01*
X004829Y017379D02*
X004816Y017381D01*
X004804Y017386D01*
X004794Y017394D01*
X004786Y017404D01*
X004781Y017416D01*
X004779Y017429D01*
X004753Y017380D02*
X004744Y017369D01*
X004733Y017361D01*
X004720Y017356D01*
X004706Y017352D01*
X004692Y017352D01*
X004679Y017355D01*
X004754Y017329D02*
X004979Y017079D01*
X004954Y017054D02*
X004964Y017044D01*
X004976Y017036D01*
X004990Y017031D01*
X005004Y017029D01*
X005014Y017030D01*
X005023Y017035D01*
X005030Y017042D01*
X005035Y017051D01*
X005036Y017061D01*
X005034Y017070D01*
X005029Y017079D01*
X005054Y017079D02*
X005038Y017082D01*
X005021Y017083D01*
X005006Y017079D01*
X004991Y017073D01*
X004978Y017063D01*
X004967Y017050D01*
X004959Y017036D01*
X004955Y017021D01*
X004954Y017004D01*
X005329Y017404D02*
X005361Y017402D01*
X005393Y017398D01*
X005424Y017390D01*
X005454Y017379D01*
X005029Y017079D02*
X005007Y017108D01*
X004988Y017139D01*
X004970Y017171D01*
X004954Y017204D01*
X005129Y017304D02*
X005154Y017304D01*
X005129Y017304D02*
X005125Y017308D01*
X005122Y017313D01*
X005122Y017319D01*
X005125Y017324D01*
X005129Y017328D01*
X005154Y017304D02*
X005167Y017306D01*
X005179Y017311D01*
X005189Y017319D01*
X005197Y017329D01*
X005202Y017341D01*
X005204Y017354D01*
X005254Y017404D01*
X005329Y017404D01*
X004854Y017454D02*
X004855Y017493D01*
X004860Y017531D01*
X004867Y017569D01*
X004876Y017607D01*
X004889Y017643D01*
X004904Y017679D01*
X004729Y017529D02*
X004706Y017554D01*
X004685Y017581D01*
X004667Y017609D01*
X004652Y017640D01*
X004639Y017671D01*
X004629Y017704D01*
X004704Y017929D02*
X004679Y017954D01*
X004704Y017929D02*
X004707Y017924D01*
X004713Y017920D01*
X004719Y017920D01*
X004725Y017924D01*
X004728Y017929D01*
X004679Y017954D02*
X004670Y017964D01*
X004665Y017977D01*
X004663Y017991D01*
X004665Y018005D01*
X004670Y018017D01*
X004679Y018028D01*
X004179Y017004D02*
X004119Y017025D01*
X004060Y017050D01*
X004004Y017079D01*
X004029Y017454D02*
X004068Y017471D01*
X004109Y017484D01*
X004150Y017494D01*
X004193Y017501D01*
X004235Y017504D01*
X004278Y017503D01*
X004321Y017498D01*
X004363Y017490D01*
X004404Y017479D01*
X004529Y017029D02*
X004492Y017013D01*
X004455Y017000D01*
X004416Y016990D01*
X004376Y016984D01*
X004336Y016981D01*
X004296Y016982D01*
X004257Y016986D01*
X004217Y016993D01*
X004179Y017004D01*
X004354Y016904D02*
X004379Y016954D01*
X004954Y017204D02*
X004942Y017229D01*
X004929Y017254D01*
X004954Y017004D02*
X004939Y016980D01*
X004921Y016958D01*
X004900Y016937D01*
X004878Y016919D01*
X004854Y016904D01*
X004529Y017029D02*
X004528Y017037D01*
X004524Y017044D01*
X004519Y017049D01*
X004512Y017053D01*
X004504Y017054D01*
X004479Y017054D01*
X004404Y016779D02*
X004438Y016769D01*
X004473Y016763D01*
X004509Y016760D01*
X004545Y016761D01*
X004580Y016766D01*
X004614Y016775D01*
X004647Y016788D01*
X004679Y016804D01*
X004404Y016779D02*
X004389Y016787D01*
X004376Y016796D01*
X004364Y016809D01*
X004355Y016823D01*
X004349Y016839D01*
X004345Y016855D01*
X004345Y016872D01*
X004348Y016889D01*
X004354Y016904D01*
X004429Y017029D02*
X004439Y017039D01*
X004451Y017047D01*
X004465Y017052D01*
X004479Y017054D01*
X004653Y017378D02*
X004642Y017387D01*
X004630Y017395D01*
X004617Y017400D01*
X004603Y017403D01*
X004304Y017804D02*
X004279Y017804D01*
X004254Y017829D01*
X004304Y017804D02*
X004329Y017829D01*
X004329Y017929D01*
X004304Y017954D01*
X004204Y017979D02*
X004202Y017956D01*
X004203Y017932D01*
X004208Y017909D01*
X004215Y017887D01*
X004225Y017866D01*
X004238Y017846D01*
X004254Y017829D01*
X004429Y017929D02*
X004425Y017956D01*
X004418Y017983D01*
X004408Y018008D01*
X004395Y018032D01*
X004379Y018054D01*
X004279Y018153D02*
X004262Y018149D01*
X004246Y018142D01*
X004232Y018132D01*
X004221Y018119D01*
X004212Y018104D01*
X004206Y018088D01*
X004203Y018071D01*
X004204Y018054D01*
X004729Y017929D02*
X004741Y017972D01*
X004749Y018015D01*
X004753Y018059D01*
X004754Y018104D01*
X004704Y018254D02*
X004697Y018261D01*
X004689Y018265D01*
X004679Y018267D01*
X004669Y018265D01*
X004661Y018261D01*
X004654Y018254D01*
X004378Y018054D02*
X004352Y018091D01*
X004328Y018129D01*
X004329Y018129D02*
X004322Y018138D01*
X004313Y018146D01*
X004302Y018151D01*
X004291Y018154D01*
X004279Y018154D01*
X004704Y018254D02*
X004721Y018227D01*
X004735Y018198D01*
X004745Y018168D01*
X004751Y018136D01*
X004754Y018104D01*
X004430Y017929D02*
X004434Y017893D01*
X004442Y017857D01*
X004452Y017822D01*
X004465Y017787D01*
X004480Y017754D01*
X004204Y017978D02*
X004207Y018003D01*
X004207Y018029D01*
X004204Y018053D01*
X005129Y017328D02*
X005188Y017362D01*
X005245Y017398D01*
X005300Y017437D01*
X005354Y017478D01*
X005229Y017055D02*
X005194Y017054D01*
X005158Y017056D01*
X005123Y017062D01*
X005088Y017069D01*
X005054Y017080D01*
X005329Y017054D02*
X005355Y017055D01*
X005381Y017059D01*
X005406Y017067D01*
X005429Y017079D01*
X005554Y017254D02*
X005549Y017277D01*
X005540Y017299D01*
X005528Y017320D01*
X005513Y017338D01*
X005495Y017355D01*
X005476Y017368D01*
X005454Y017379D01*
X005554Y017254D02*
X005556Y017234D01*
X005555Y017214D01*
X005550Y017194D01*
X005543Y017175D01*
X005532Y017158D01*
X005519Y017142D01*
X005504Y017129D01*
X004903Y017679D02*
X004927Y017726D01*
X004953Y017771D01*
X004983Y017814D01*
X005014Y017855D01*
X005049Y017895D01*
X005086Y017932D01*
X005125Y017966D01*
X005166Y017998D01*
X005209Y018028D01*
X005254Y018055D01*
X005254Y018054D02*
X005270Y018061D01*
X005287Y018066D01*
X005304Y018067D01*
X005321Y018066D01*
X005338Y018061D01*
X005354Y018054D01*
X004579Y018029D02*
X004580Y017972D01*
X004584Y017916D01*
X004592Y017860D01*
X004604Y017804D01*
X005429Y017079D02*
X005467Y017103D01*
X005504Y017129D01*
X005779Y017679D02*
X005779Y017949D01*
X005914Y017949D01*
X005959Y017904D01*
X005959Y017814D01*
X005914Y017769D01*
X005779Y017769D01*
X006074Y017724D02*
X006119Y017769D01*
X006254Y017769D01*
X006254Y017814D02*
X006254Y017679D01*
X006119Y017679D01*
X006074Y017724D01*
X006119Y017859D02*
X006209Y017859D01*
X006254Y017814D01*
X006368Y017859D02*
X006503Y017859D01*
X006548Y017814D01*
X006548Y017724D01*
X006503Y017679D01*
X006368Y017679D01*
X006368Y017589D02*
X006368Y017859D01*
X004929Y017254D02*
X004902Y017303D01*
X004877Y017353D01*
X004854Y017404D01*
X005354Y017478D02*
X005381Y017503D01*
X005406Y017530D01*
X005429Y017560D01*
X005449Y017591D01*
X005466Y017624D01*
X005480Y017658D01*
X005491Y017694D01*
X005499Y017730D01*
X005503Y017767D01*
X005504Y017804D01*
X005502Y017834D01*
X005497Y017864D01*
X005488Y017894D01*
X005477Y017922D01*
X005463Y017949D01*
X005446Y017974D01*
X005426Y017997D01*
X005404Y018019D01*
X005380Y018037D01*
X005354Y018053D01*
X004654Y018254D02*
X004635Y018225D01*
X004619Y018195D01*
X004606Y018163D01*
X004595Y018130D01*
X004587Y018097D01*
X004581Y018063D01*
X004579Y018029D01*
X004429Y017029D02*
X004403Y016992D01*
X004379Y016954D01*
X005229Y017054D02*
X005279Y017055D01*
X005329Y017054D01*
X006663Y017679D02*
X006753Y017679D01*
X006708Y017679D02*
X006708Y017859D01*
X006663Y017859D01*
X006708Y017949D02*
X006708Y017994D01*
X006859Y017949D02*
X006904Y017949D01*
X006904Y017679D01*
X006859Y017679D02*
X006949Y017679D01*
X007056Y017679D02*
X007146Y017679D01*
X007101Y017679D02*
X007101Y017859D01*
X007056Y017859D01*
X007101Y017949D02*
X007101Y017994D01*
X007252Y017814D02*
X007252Y017724D01*
X007297Y017679D01*
X007387Y017679D01*
X007432Y017724D01*
X007432Y017814D01*
X007387Y017859D01*
X007297Y017859D01*
X007252Y017814D01*
X007841Y017769D02*
X007976Y017769D01*
X008022Y017814D01*
X008022Y017904D01*
X007976Y017949D01*
X007841Y017949D01*
X007841Y017679D01*
X008136Y017679D02*
X008226Y017679D01*
X008181Y017679D02*
X008181Y017949D01*
X008136Y017949D01*
X008377Y017859D02*
X008468Y017859D01*
X008513Y017814D01*
X008513Y017679D01*
X008377Y017679D01*
X008332Y017724D01*
X008377Y017769D01*
X008513Y017769D01*
X008627Y017859D02*
X008717Y017859D01*
X008672Y017904D02*
X008672Y017724D01*
X008717Y017679D01*
X008869Y017679D02*
X008869Y017904D01*
X008914Y017949D01*
X008914Y017814D02*
X008824Y017814D01*
X009020Y017814D02*
X009020Y017724D01*
X009065Y017679D01*
X009155Y017679D01*
X009200Y017724D01*
X009200Y017814D01*
X009155Y017859D01*
X009065Y017859D01*
X009020Y017814D01*
X009315Y017769D02*
X009405Y017859D01*
X009450Y017859D01*
X009560Y017859D02*
X009560Y017679D01*
X009650Y017679D02*
X009650Y017814D01*
X009695Y017859D01*
X009740Y017814D01*
X009740Y017679D01*
X009650Y017814D02*
X009605Y017859D01*
X009560Y017859D01*
X009315Y017859D02*
X009315Y017679D01*
X008858Y015163D02*
X008150Y015163D01*
X008150Y014611D01*
X008150Y014296D02*
X008150Y013745D01*
X008858Y013745D01*
X008858Y014296D01*
X008858Y014611D02*
X008858Y015163D01*
X007108Y014763D02*
X007108Y014211D01*
X007108Y013896D02*
X007108Y013345D01*
X006400Y013345D01*
X006400Y013896D01*
X006400Y014211D02*
X006400Y014763D01*
X007108Y014763D01*
X005858Y014763D02*
X005858Y014211D01*
X005858Y013896D02*
X005858Y013345D01*
X005150Y013345D01*
X005150Y013896D01*
X005150Y014211D02*
X005150Y014763D01*
X005858Y014763D01*
X003794Y013280D02*
X003794Y012728D01*
X003322Y012728D01*
X003086Y012728D02*
X002613Y012728D01*
X002613Y013280D01*
X003086Y013280D01*
X003322Y013280D02*
X003794Y013280D01*
X003794Y012280D02*
X003322Y012280D01*
X003086Y012280D02*
X002613Y012280D01*
X002613Y011728D01*
X003086Y011728D01*
X003322Y011728D02*
X003794Y011728D01*
X003794Y012280D01*
X003694Y011280D02*
X003222Y011280D01*
X002986Y011280D02*
X002513Y011280D01*
X002513Y010728D01*
X002986Y010728D01*
X003222Y010728D02*
X003694Y010728D01*
X003694Y011280D01*
X002279Y010504D02*
X000529Y010504D01*
X000529Y011504D02*
X002219Y011504D01*
X002219Y012504D02*
X000529Y012504D01*
X002513Y010030D02*
X002513Y009478D01*
X002986Y009478D01*
X003222Y009478D02*
X003694Y009478D01*
X003694Y010030D01*
X003222Y010030D01*
X002986Y010030D02*
X002513Y010030D01*
X000504Y008504D02*
X000494Y008504D01*
X000504Y007504D02*
X000504Y006504D01*
X000494Y006504D01*
X001254Y006504D02*
X001504Y006254D01*
X001504Y005754D01*
X001254Y005504D01*
X001504Y005454D02*
X001504Y002554D01*
X001534Y002494D02*
X002284Y002494D01*
X002613Y002280D02*
X002613Y001728D01*
X003086Y001728D01*
X003322Y001728D02*
X003794Y001728D01*
X003794Y002280D01*
X003322Y002280D01*
X003086Y002280D02*
X002613Y002280D01*
X002613Y002728D02*
X002613Y003280D01*
X003086Y003280D01*
X003322Y003280D02*
X003794Y003280D01*
X003794Y002728D01*
X003322Y002728D01*
X003086Y002728D02*
X002613Y002728D01*
X002004Y002504D02*
X000514Y002504D01*
X001504Y002454D02*
X001504Y001554D01*
X002264Y001504D02*
X000554Y001504D01*
X000504Y001504D02*
X000504Y003504D01*
X000504Y004504D02*
X000504Y005504D01*
X001613Y005728D02*
X001613Y006280D01*
X002086Y006280D01*
X002322Y006280D02*
X002794Y006280D01*
X002794Y005728D01*
X002322Y005728D01*
X002086Y005728D02*
X001613Y005728D01*
X001613Y006728D02*
X001613Y007280D01*
X002086Y007280D01*
X002322Y007280D02*
X002794Y007280D01*
X002794Y006728D01*
X002322Y006728D01*
X002086Y006728D02*
X001613Y006728D01*
X002613Y005280D02*
X002613Y004728D01*
X003086Y004728D01*
X003322Y004728D02*
X003794Y004728D01*
X003794Y005280D01*
X003322Y005280D01*
X003086Y005280D02*
X002613Y005280D01*
X002254Y004504D02*
X002504Y004254D01*
X002504Y003754D01*
X002254Y003504D01*
X002613Y003728D02*
X002613Y004280D01*
X003086Y004280D01*
X003322Y004280D02*
X003794Y004280D01*
X003794Y003728D01*
X003322Y003728D01*
X003086Y003728D02*
X002613Y003728D01*
X005400Y004495D02*
X006108Y004495D01*
X006108Y005046D01*
X006108Y005361D02*
X006108Y005913D01*
X005400Y005913D01*
X005400Y005361D01*
X005400Y005046D02*
X005400Y004495D01*
X008150Y004561D02*
X008150Y005113D01*
X008858Y005113D01*
X008858Y004561D01*
X008858Y004246D02*
X008858Y003695D01*
X008150Y003695D01*
X008150Y004246D01*
X004678Y016804D02*
X004853Y016904D01*
X004954Y017054D02*
X004890Y017132D01*
X004824Y017207D01*
X004754Y017279D01*
X011800Y006713D02*
X012508Y006713D01*
X012508Y006161D01*
X012650Y006161D02*
X012650Y006713D01*
X013358Y006713D01*
X013358Y006161D01*
X013358Y005846D02*
X013358Y005295D01*
X012650Y005295D01*
X012650Y005846D01*
X012508Y005846D02*
X012508Y005295D01*
X011800Y005295D01*
X011800Y005846D01*
X011800Y006161D02*
X011800Y006713D01*
X015754Y002504D02*
X016254Y002504D01*
X016504Y002254D01*
X016754Y002504D01*
X017254Y002504D01*
X017504Y002254D01*
X017754Y002504D01*
X018254Y002504D01*
X018504Y002254D01*
X018754Y002504D01*
X019254Y002504D01*
X019504Y002254D01*
X019504Y002249D02*
X019504Y000529D01*
X019504Y000504D02*
X011504Y000504D01*
X011504Y001254D01*
X011754Y001504D01*
X012254Y001504D01*
X012504Y001254D01*
X012754Y001504D01*
X013254Y001504D01*
X013504Y001254D01*
X013754Y001504D01*
X014254Y001504D01*
X014504Y001254D01*
X014754Y001504D01*
X015254Y001504D01*
X015504Y001254D01*
X015514Y001504D02*
X019154Y001504D01*
X019254Y001504D01*
X019494Y001504D01*
X018504Y002279D02*
X018504Y000529D01*
X017504Y000529D02*
X017504Y002219D01*
X016504Y002219D02*
X016504Y000529D01*
X015504Y000529D02*
X015504Y002249D01*
X015509Y002259D02*
X015749Y002499D01*
X014504Y001279D02*
X014504Y000529D01*
X013504Y000529D02*
X013504Y001279D01*
X012504Y001279D02*
X012504Y000529D01*
D12*
X013351Y010024D02*
X013274Y010101D01*
X013351Y010024D02*
X013504Y010024D01*
X013581Y010101D01*
X013581Y010177D01*
X013504Y010254D01*
X013351Y010254D01*
X013274Y010331D01*
X013274Y010408D01*
X013351Y010484D01*
X013504Y010484D01*
X013581Y010408D01*
X013734Y010484D02*
X013964Y010484D01*
X014041Y010408D01*
X014041Y010254D01*
X013964Y010177D01*
X013734Y010177D01*
X013734Y010024D02*
X013734Y010484D01*
X013888Y010177D02*
X014041Y010024D01*
X014195Y010024D02*
X014195Y010331D01*
X014348Y010484D01*
X014502Y010331D01*
X014502Y010024D01*
X014655Y010024D02*
X014655Y010484D01*
X014808Y010331D01*
X014962Y010484D01*
X014962Y010024D01*
X014502Y010254D02*
X014195Y010254D01*
X008865Y010990D02*
X008788Y010914D01*
X008635Y010914D01*
X008558Y010990D01*
X008865Y011297D01*
X008865Y010990D01*
X008558Y010990D02*
X008558Y011297D01*
X008635Y011374D01*
X008788Y011374D01*
X008865Y011297D01*
X008405Y011297D02*
X008405Y010990D01*
X008328Y010914D01*
X008174Y010914D01*
X008098Y010990D01*
X008405Y011297D01*
X008328Y011374D01*
X008174Y011374D01*
X008098Y011297D01*
X008098Y010990D01*
X007944Y010990D02*
X007944Y011144D01*
X007867Y011221D01*
X007791Y011221D01*
X007637Y011144D01*
X007637Y011374D01*
X007944Y011374D01*
X007944Y010990D02*
X007867Y010914D01*
X007714Y010914D01*
X007637Y010990D01*
X007484Y010990D02*
X007484Y011297D01*
X007407Y011374D01*
X007254Y011374D01*
X007177Y011297D01*
X007177Y011221D01*
X007254Y011144D01*
X007484Y011144D01*
X007484Y010990D02*
X007407Y010914D01*
X007254Y010914D01*
X007177Y010990D01*
X007023Y010990D02*
X006947Y010914D01*
X006793Y010914D01*
X006717Y010990D01*
X006717Y011297D01*
X006793Y011374D01*
X006947Y011374D01*
X007023Y011297D01*
X006563Y011374D02*
X006256Y010914D01*
X006563Y010914D02*
X006256Y011374D01*
D13*
X006044Y011866D02*
X006046Y011885D01*
X006051Y011904D01*
X006061Y011920D01*
X006073Y011935D01*
X006088Y011947D01*
X006104Y011957D01*
X006123Y011962D01*
X006142Y011964D01*
X006161Y011962D01*
X006180Y011957D01*
X006196Y011947D01*
X006211Y011935D01*
X006223Y011920D01*
X006233Y011904D01*
X006238Y011885D01*
X006240Y011866D01*
X006238Y011847D01*
X006233Y011828D01*
X006223Y011812D01*
X006211Y011797D01*
X006196Y011785D01*
X006180Y011775D01*
X006161Y011770D01*
X006142Y011768D01*
X006123Y011770D01*
X006104Y011775D01*
X006088Y011785D01*
X006073Y011797D01*
X006061Y011812D01*
X006051Y011828D01*
X006046Y011847D01*
X006044Y011866D01*
X005748Y011965D02*
X006043Y012260D01*
X011161Y012260D01*
X011260Y012161D01*
X011260Y006846D01*
X011161Y006748D01*
X005846Y006748D01*
X005748Y006846D01*
X005748Y011965D01*
D14*
X012421Y011423D02*
X012421Y007742D01*
X019587Y007742D01*
X019587Y011423D01*
X012421Y011423D01*
X012609Y008126D02*
X012611Y008151D01*
X012617Y008176D01*
X012626Y008200D01*
X012639Y008222D01*
X012656Y008242D01*
X012675Y008259D01*
X012696Y008273D01*
X012720Y008283D01*
X012744Y008290D01*
X012770Y008293D01*
X012795Y008292D01*
X012820Y008287D01*
X012844Y008278D01*
X012867Y008266D01*
X012887Y008251D01*
X012905Y008232D01*
X012920Y008211D01*
X012931Y008188D01*
X012939Y008164D01*
X012943Y008139D01*
X012943Y008113D01*
X012939Y008088D01*
X012931Y008064D01*
X012920Y008041D01*
X012905Y008020D01*
X012887Y008001D01*
X012867Y007986D01*
X012844Y007974D01*
X012820Y007965D01*
X012795Y007960D01*
X012770Y007959D01*
X012744Y007962D01*
X012720Y007969D01*
X012696Y007979D01*
X012675Y007993D01*
X012656Y008010D01*
X012639Y008030D01*
X012626Y008052D01*
X012617Y008076D01*
X012611Y008101D01*
X012609Y008126D01*
X012421Y007742D02*
X012421Y007585D01*
X019587Y007585D01*
X019587Y007742D01*
M02*
