G75*
G70*
%OFA0B0*%
%FSLAX24Y24*%
%IPPOS*%
%LPD*%
%AMOC8*
5,1,8,0,0,1.08239X$1,22.5*
%
%ADD10R,0.0591X0.0138*%
%ADD11R,0.0138X0.0591*%
%ADD12R,0.0157X0.0512*%
%ADD13C,0.0094*%
%ADD14C,0.0079*%
D10*
X005354Y007142D03*
X005354Y007339D03*
X005354Y007535D03*
X005354Y007732D03*
X005354Y007929D03*
X005354Y008126D03*
X005354Y008323D03*
X005354Y008520D03*
X005354Y008717D03*
X005354Y008913D03*
X005354Y009110D03*
X005354Y009307D03*
X005354Y009504D03*
X005354Y009701D03*
X005354Y009898D03*
X005354Y010095D03*
X005354Y010291D03*
X005354Y010488D03*
X005354Y010685D03*
X005354Y010882D03*
X005354Y011079D03*
X005354Y011276D03*
X005354Y011472D03*
X005354Y011669D03*
X005354Y011866D03*
X011654Y011866D03*
X011654Y011669D03*
X011654Y011472D03*
X011654Y011276D03*
X011654Y011079D03*
X011654Y010882D03*
X011654Y010685D03*
X011654Y010488D03*
X011654Y010291D03*
X011654Y010095D03*
X011654Y009898D03*
X011654Y009701D03*
X011654Y009504D03*
X011654Y009307D03*
X011654Y009110D03*
X011654Y008913D03*
X011654Y008717D03*
X011654Y008520D03*
X011654Y008323D03*
X011654Y008126D03*
X011654Y007929D03*
X011654Y007732D03*
X011654Y007535D03*
X011654Y007339D03*
X011654Y007142D03*
D11*
X010866Y006354D03*
X010669Y006354D03*
X010472Y006354D03*
X010276Y006354D03*
X010079Y006354D03*
X009882Y006354D03*
X009685Y006354D03*
X009488Y006354D03*
X009291Y006354D03*
X009095Y006354D03*
X008898Y006354D03*
X008701Y006354D03*
X008504Y006354D03*
X008307Y006354D03*
X008110Y006354D03*
X007913Y006354D03*
X007717Y006354D03*
X007520Y006354D03*
X007323Y006354D03*
X007126Y006354D03*
X006929Y006354D03*
X006732Y006354D03*
X006535Y006354D03*
X006339Y006354D03*
X006142Y006354D03*
X006142Y012654D03*
X006339Y012654D03*
X006535Y012654D03*
X006732Y012654D03*
X006929Y012654D03*
X007126Y012654D03*
X007323Y012654D03*
X007520Y012654D03*
X007717Y012654D03*
X007913Y012654D03*
X008110Y012654D03*
X008307Y012654D03*
X008504Y012654D03*
X008701Y012654D03*
X008898Y012654D03*
X009095Y012654D03*
X009291Y012654D03*
X009488Y012654D03*
X009685Y012654D03*
X009882Y012654D03*
X010079Y012654D03*
X010276Y012654D03*
X010472Y012654D03*
X010669Y012654D03*
X010866Y012654D03*
D12*
X012697Y011787D03*
X013012Y011787D03*
X013327Y011787D03*
X013642Y011787D03*
X013957Y011787D03*
X014272Y011787D03*
X014587Y011787D03*
X014902Y011787D03*
X015217Y011787D03*
X015531Y011787D03*
X015846Y011787D03*
X016161Y011787D03*
X016476Y011787D03*
X016791Y011787D03*
X017106Y011787D03*
X017421Y011787D03*
X017736Y011787D03*
X018051Y011787D03*
X018366Y011787D03*
X018681Y011787D03*
X018996Y011787D03*
X019311Y011787D03*
X019311Y007220D03*
X018996Y007220D03*
X018681Y007220D03*
X018366Y007220D03*
X018051Y007220D03*
X017736Y007220D03*
X017421Y007220D03*
X017106Y007220D03*
X016791Y007220D03*
X016476Y007220D03*
X016161Y007220D03*
X015846Y007220D03*
X015531Y007220D03*
X015217Y007220D03*
X014902Y007220D03*
X014587Y007220D03*
X014272Y007220D03*
X013957Y007220D03*
X013642Y007220D03*
X013327Y007220D03*
X013012Y007220D03*
X012697Y007220D03*
D13*
X013232Y006587D02*
X013232Y006209D01*
X012776Y006209D01*
X012776Y006587D01*
X013232Y006587D01*
X013232Y006302D02*
X012776Y006302D01*
X012776Y006395D02*
X013232Y006395D01*
X013232Y006488D02*
X012776Y006488D01*
X012776Y006581D02*
X013232Y006581D01*
X012382Y006587D02*
X012382Y006209D01*
X011926Y006209D01*
X011926Y006587D01*
X012382Y006587D01*
X012382Y006302D02*
X011926Y006302D01*
X011926Y006395D02*
X012382Y006395D01*
X012382Y006488D02*
X011926Y006488D01*
X011926Y006581D02*
X012382Y006581D01*
X012382Y005799D02*
X012382Y005421D01*
X011926Y005421D01*
X011926Y005799D01*
X012382Y005799D01*
X012382Y005514D02*
X011926Y005514D01*
X011926Y005607D02*
X012382Y005607D01*
X012382Y005700D02*
X011926Y005700D01*
X011926Y005793D02*
X012382Y005793D01*
X013232Y005799D02*
X013232Y005421D01*
X012776Y005421D01*
X012776Y005799D01*
X013232Y005799D01*
X013232Y005514D02*
X012776Y005514D01*
X012776Y005607D02*
X013232Y005607D01*
X013232Y005700D02*
X012776Y005700D01*
X012776Y005793D02*
X013232Y005793D01*
X008732Y004987D02*
X008732Y004609D01*
X008276Y004609D01*
X008276Y004987D01*
X008732Y004987D01*
X008732Y004702D02*
X008276Y004702D01*
X008276Y004795D02*
X008732Y004795D01*
X008732Y004888D02*
X008276Y004888D01*
X008276Y004981D02*
X008732Y004981D01*
X008732Y004199D02*
X008732Y003821D01*
X008276Y003821D01*
X008276Y004199D01*
X008732Y004199D01*
X008732Y003914D02*
X008276Y003914D01*
X008276Y004007D02*
X008732Y004007D01*
X008732Y004100D02*
X008276Y004100D01*
X008276Y004193D02*
X008732Y004193D01*
X005982Y004621D02*
X005982Y004999D01*
X005982Y004621D02*
X005526Y004621D01*
X005526Y004999D01*
X005982Y004999D01*
X005982Y004714D02*
X005526Y004714D01*
X005526Y004807D02*
X005982Y004807D01*
X005982Y004900D02*
X005526Y004900D01*
X005526Y004993D02*
X005982Y004993D01*
X005982Y005409D02*
X005982Y005787D01*
X005982Y005409D02*
X005526Y005409D01*
X005526Y005787D01*
X005982Y005787D01*
X005982Y005502D02*
X005526Y005502D01*
X005526Y005595D02*
X005982Y005595D01*
X005982Y005688D02*
X005526Y005688D01*
X005526Y005781D02*
X005982Y005781D01*
X005276Y013471D02*
X005276Y013849D01*
X005732Y013849D01*
X005732Y013471D01*
X005276Y013471D01*
X005276Y013564D02*
X005732Y013564D01*
X005732Y013657D02*
X005276Y013657D01*
X005276Y013750D02*
X005732Y013750D01*
X005732Y013843D02*
X005276Y013843D01*
X005276Y014259D02*
X005276Y014637D01*
X005732Y014637D01*
X005732Y014259D01*
X005276Y014259D01*
X005276Y014352D02*
X005732Y014352D01*
X005732Y014445D02*
X005276Y014445D01*
X005276Y014538D02*
X005732Y014538D01*
X005732Y014631D02*
X005276Y014631D01*
X006526Y014637D02*
X006526Y014259D01*
X006526Y014637D02*
X006982Y014637D01*
X006982Y014259D01*
X006526Y014259D01*
X006526Y014352D02*
X006982Y014352D01*
X006982Y014445D02*
X006526Y014445D01*
X006526Y014538D02*
X006982Y014538D01*
X006982Y014631D02*
X006526Y014631D01*
X006526Y013849D02*
X006526Y013471D01*
X006526Y013849D02*
X006982Y013849D01*
X006982Y013471D01*
X006526Y013471D01*
X006526Y013564D02*
X006982Y013564D01*
X006982Y013657D02*
X006526Y013657D01*
X006526Y013750D02*
X006982Y013750D01*
X006982Y013843D02*
X006526Y013843D01*
X008276Y013871D02*
X008276Y014249D01*
X008732Y014249D01*
X008732Y013871D01*
X008276Y013871D01*
X008276Y013964D02*
X008732Y013964D01*
X008732Y014057D02*
X008276Y014057D01*
X008276Y014150D02*
X008732Y014150D01*
X008732Y014243D02*
X008276Y014243D01*
X008276Y014659D02*
X008276Y015037D01*
X008732Y015037D01*
X008732Y014659D01*
X008276Y014659D01*
X008276Y014752D02*
X008732Y014752D01*
X008732Y014845D02*
X008276Y014845D01*
X008276Y014938D02*
X008732Y014938D01*
X008732Y015031D02*
X008276Y015031D01*
D14*
X003047Y001846D02*
X002731Y001846D01*
X002731Y002162D01*
X003047Y002162D01*
X003047Y001846D01*
X003047Y001924D02*
X002731Y001924D01*
X002731Y002002D02*
X003047Y002002D01*
X003047Y002080D02*
X002731Y002080D01*
X002731Y002158D02*
X003047Y002158D01*
X003361Y001846D02*
X003677Y001846D01*
X003361Y001846D02*
X003361Y002162D01*
X003677Y002162D01*
X003677Y001846D01*
X003677Y001924D02*
X003361Y001924D01*
X003361Y002002D02*
X003677Y002002D01*
X003677Y002080D02*
X003361Y002080D01*
X003361Y002158D02*
X003677Y002158D01*
X003677Y002846D02*
X003361Y002846D01*
X003361Y003162D01*
X003677Y003162D01*
X003677Y002846D01*
X003677Y002924D02*
X003361Y002924D01*
X003361Y003002D02*
X003677Y003002D01*
X003677Y003080D02*
X003361Y003080D01*
X003361Y003158D02*
X003677Y003158D01*
X003047Y002846D02*
X002731Y002846D01*
X002731Y003162D01*
X003047Y003162D01*
X003047Y002846D01*
X003047Y002924D02*
X002731Y002924D01*
X002731Y003002D02*
X003047Y003002D01*
X003047Y003080D02*
X002731Y003080D01*
X002731Y003158D02*
X003047Y003158D01*
X003047Y003846D02*
X002731Y003846D01*
X002731Y004162D01*
X003047Y004162D01*
X003047Y003846D01*
X003047Y003924D02*
X002731Y003924D01*
X002731Y004002D02*
X003047Y004002D01*
X003047Y004080D02*
X002731Y004080D01*
X002731Y004158D02*
X003047Y004158D01*
X003361Y003846D02*
X003677Y003846D01*
X003361Y003846D02*
X003361Y004162D01*
X003677Y004162D01*
X003677Y003846D01*
X003677Y003924D02*
X003361Y003924D01*
X003361Y004002D02*
X003677Y004002D01*
X003677Y004080D02*
X003361Y004080D01*
X003361Y004158D02*
X003677Y004158D01*
X003677Y004846D02*
X003361Y004846D01*
X003361Y005162D01*
X003677Y005162D01*
X003677Y004846D01*
X003677Y004924D02*
X003361Y004924D01*
X003361Y005002D02*
X003677Y005002D01*
X003677Y005080D02*
X003361Y005080D01*
X003361Y005158D02*
X003677Y005158D01*
X003047Y004846D02*
X002731Y004846D01*
X002731Y005162D01*
X003047Y005162D01*
X003047Y004846D01*
X003047Y004924D02*
X002731Y004924D01*
X002731Y005002D02*
X003047Y005002D01*
X003047Y005080D02*
X002731Y005080D01*
X002731Y005158D02*
X003047Y005158D01*
X002677Y005846D02*
X002361Y005846D01*
X002361Y006162D01*
X002677Y006162D01*
X002677Y005846D01*
X002677Y005924D02*
X002361Y005924D01*
X002361Y006002D02*
X002677Y006002D01*
X002677Y006080D02*
X002361Y006080D01*
X002361Y006158D02*
X002677Y006158D01*
X002047Y005846D02*
X001731Y005846D01*
X001731Y006162D01*
X002047Y006162D01*
X002047Y005846D01*
X002047Y005924D02*
X001731Y005924D01*
X001731Y006002D02*
X002047Y006002D01*
X002047Y006080D02*
X001731Y006080D01*
X001731Y006158D02*
X002047Y006158D01*
X002047Y006846D02*
X001731Y006846D01*
X001731Y007162D01*
X002047Y007162D01*
X002047Y006846D01*
X002047Y006924D02*
X001731Y006924D01*
X001731Y007002D02*
X002047Y007002D01*
X002047Y007080D02*
X001731Y007080D01*
X001731Y007158D02*
X002047Y007158D01*
X002361Y006846D02*
X002677Y006846D01*
X002361Y006846D02*
X002361Y007162D01*
X002677Y007162D01*
X002677Y006846D01*
X002677Y006924D02*
X002361Y006924D01*
X002361Y007002D02*
X002677Y007002D01*
X002677Y007080D02*
X002361Y007080D01*
X002361Y007158D02*
X002677Y007158D01*
X002677Y007846D02*
X002361Y007846D01*
X002361Y008162D01*
X002677Y008162D01*
X002677Y007846D01*
X002677Y007924D02*
X002361Y007924D01*
X002361Y008002D02*
X002677Y008002D01*
X002677Y008080D02*
X002361Y008080D01*
X002361Y008158D02*
X002677Y008158D01*
X002047Y007846D02*
X001731Y007846D01*
X001731Y008162D01*
X002047Y008162D01*
X002047Y007846D01*
X002047Y007924D02*
X001731Y007924D01*
X001731Y008002D02*
X002047Y008002D01*
X002047Y008080D02*
X001731Y008080D01*
X001731Y008158D02*
X002047Y008158D01*
X002047Y008846D02*
X001731Y008846D01*
X001731Y009162D01*
X002047Y009162D01*
X002047Y008846D01*
X002047Y008924D02*
X001731Y008924D01*
X001731Y009002D02*
X002047Y009002D01*
X002047Y009080D02*
X001731Y009080D01*
X001731Y009158D02*
X002047Y009158D01*
X002361Y008846D02*
X002677Y008846D01*
X002361Y008846D02*
X002361Y009162D01*
X002677Y009162D01*
X002677Y008846D01*
X002677Y008924D02*
X002361Y008924D01*
X002361Y009002D02*
X002677Y009002D01*
X002677Y009080D02*
X002361Y009080D01*
X002361Y009158D02*
X002677Y009158D01*
X002631Y009596D02*
X002947Y009596D01*
X002631Y009596D02*
X002631Y009912D01*
X002947Y009912D01*
X002947Y009596D01*
X002947Y009674D02*
X002631Y009674D01*
X002631Y009752D02*
X002947Y009752D01*
X002947Y009830D02*
X002631Y009830D01*
X002631Y009908D02*
X002947Y009908D01*
X003261Y009596D02*
X003577Y009596D01*
X003261Y009596D02*
X003261Y009912D01*
X003577Y009912D01*
X003577Y009596D01*
X003577Y009674D02*
X003261Y009674D01*
X003261Y009752D02*
X003577Y009752D01*
X003577Y009830D02*
X003261Y009830D01*
X003261Y009908D02*
X003577Y009908D01*
X003577Y010846D02*
X003261Y010846D01*
X003261Y011162D01*
X003577Y011162D01*
X003577Y010846D01*
X003577Y010924D02*
X003261Y010924D01*
X003261Y011002D02*
X003577Y011002D01*
X003577Y011080D02*
X003261Y011080D01*
X003261Y011158D02*
X003577Y011158D01*
X002947Y010846D02*
X002631Y010846D01*
X002631Y011162D01*
X002947Y011162D01*
X002947Y010846D01*
X002947Y010924D02*
X002631Y010924D01*
X002631Y011002D02*
X002947Y011002D01*
X002947Y011080D02*
X002631Y011080D01*
X002631Y011158D02*
X002947Y011158D01*
X003047Y011846D02*
X002731Y011846D01*
X002731Y012162D01*
X003047Y012162D01*
X003047Y011846D01*
X003047Y011924D02*
X002731Y011924D01*
X002731Y012002D02*
X003047Y012002D01*
X003047Y012080D02*
X002731Y012080D01*
X002731Y012158D02*
X003047Y012158D01*
X003361Y011846D02*
X003677Y011846D01*
X003361Y011846D02*
X003361Y012162D01*
X003677Y012162D01*
X003677Y011846D01*
X003677Y011924D02*
X003361Y011924D01*
X003361Y012002D02*
X003677Y012002D01*
X003677Y012080D02*
X003361Y012080D01*
X003361Y012158D02*
X003677Y012158D01*
X003677Y012846D02*
X003361Y012846D01*
X003361Y013162D01*
X003677Y013162D01*
X003677Y012846D01*
X003677Y012924D02*
X003361Y012924D01*
X003361Y013002D02*
X003677Y013002D01*
X003677Y013080D02*
X003361Y013080D01*
X003361Y013158D02*
X003677Y013158D01*
X003047Y012846D02*
X002731Y012846D01*
X002731Y013162D01*
X003047Y013162D01*
X003047Y012846D01*
X003047Y012924D02*
X002731Y012924D01*
X002731Y013002D02*
X003047Y013002D01*
X003047Y013080D02*
X002731Y013080D01*
X002731Y013158D02*
X003047Y013158D01*
X002677Y013846D02*
X002361Y013846D01*
X002361Y014162D01*
X002677Y014162D01*
X002677Y013846D01*
X002677Y013924D02*
X002361Y013924D01*
X002361Y014002D02*
X002677Y014002D01*
X002677Y014080D02*
X002361Y014080D01*
X002361Y014158D02*
X002677Y014158D01*
X002047Y013846D02*
X001731Y013846D01*
X001731Y014162D01*
X002047Y014162D01*
X002047Y013846D01*
X002047Y013924D02*
X001731Y013924D01*
X001731Y014002D02*
X002047Y014002D01*
X002047Y014080D02*
X001731Y014080D01*
X001731Y014158D02*
X002047Y014158D01*
X002047Y014846D02*
X001731Y014846D01*
X001731Y015162D01*
X002047Y015162D01*
X002047Y014846D01*
X002047Y014924D02*
X001731Y014924D01*
X001731Y015002D02*
X002047Y015002D01*
X002047Y015080D02*
X001731Y015080D01*
X001731Y015158D02*
X002047Y015158D01*
X002361Y014846D02*
X002677Y014846D01*
X002361Y014846D02*
X002361Y015162D01*
X002677Y015162D01*
X002677Y014846D01*
X002677Y014924D02*
X002361Y014924D01*
X002361Y015002D02*
X002677Y015002D01*
X002677Y015080D02*
X002361Y015080D01*
X002361Y015158D02*
X002677Y015158D01*
X002677Y015846D02*
X002361Y015846D01*
X002361Y016162D01*
X002677Y016162D01*
X002677Y015846D01*
X002677Y015924D02*
X002361Y015924D01*
X002361Y016002D02*
X002677Y016002D01*
X002677Y016080D02*
X002361Y016080D01*
X002361Y016158D02*
X002677Y016158D01*
X002047Y015846D02*
X001731Y015846D01*
X001731Y016162D01*
X002047Y016162D01*
X002047Y015846D01*
X002047Y015924D02*
X001731Y015924D01*
X001731Y016002D02*
X002047Y016002D01*
X002047Y016080D02*
X001731Y016080D01*
X001731Y016158D02*
X002047Y016158D01*
X002047Y016846D02*
X001731Y016846D01*
X001731Y017162D01*
X002047Y017162D01*
X002047Y016846D01*
X002047Y016924D02*
X001731Y016924D01*
X001731Y017002D02*
X002047Y017002D01*
X002047Y017080D02*
X001731Y017080D01*
X001731Y017158D02*
X002047Y017158D01*
X002361Y016846D02*
X002677Y016846D01*
X002361Y016846D02*
X002361Y017162D01*
X002677Y017162D01*
X002677Y016846D01*
X002677Y016924D02*
X002361Y016924D01*
X002361Y017002D02*
X002677Y017002D01*
X002677Y017080D02*
X002361Y017080D01*
X002361Y017158D02*
X002677Y017158D01*
M02*
